  0
SECTION
  2
HEADER
  9
$ACADVER
  1
AC1032
  9
$ACADMAINTVER
 90
4
  9
$DWGCODEPAGE
  3
ANSI_1252
  9
$LASTSAVEDBY
  1
ezdxf
  9
$REQUIREDVERSIONS
160
0
  9
$INSBASE
 10
0.0
 20
0.0
 30
0.0
  9
$EXTMIN
 10
1e+20
 20
1e+20
 30
1e+20
  9
$EXTMAX
 10
-1e+20
 20
-1e+20
 30
-1e+20
  9
$LIMMIN
 10
0.0
 20
0.0
  9
$LIMMAX
 10
420.0
 20
297.0
  9
$ORTHOMODE
 70
0
  9
$REGENMODE
 70
1
  9
$FILLMODE
 70
1
  9
$QTEXTMODE
 70
0
  9
$MIRRTEXT
 70
1
  9
$LTSCALE
 40
1.0
  9
$ATTMODE
 70
1
  9
$TEXTSIZE
 40
2.5
  9
$TRACEWID
 40
1.0
  9
$TEXTSTYLE
  7
Standard
  9
$CLAYER
  8
0
  9
$CELTYPE
  6
ByLayer
  9
$CECOLOR
 62
256
  9
$CELTSCALE
 40
1.0
  9
$DISPSILH
 70
0
  9
$DIMSCALE
 40
1.0
  9
$DIMASZ
 40
2.5
  9
$DIMEXO
 40
0.625
  9
$DIMDLI
 40
3.75
  9
$DIMRND
 40
0.0
  9
$DIMDLE
 40
0.0
  9
$DIMEXE
 40
1.25
  9
$DIMTP
 40
0.0
  9
$DIMTM
 40
0.0
  9
$DIMTXT
 40
2.5
  9
$DIMCEN
 40
2.5
  9
$DIMTSZ
 40
0.0
  9
$DIMTOL
 70
0
  9
$DIMLIM
 70
0
  9
$DIMTIH
 70
0
  9
$DIMTOH
 70
0
  9
$DIMSE1
 70
0
  9
$DIMSE2
 70
0
  9
$DIMTAD
 70
1
  9
$DIMZIN
 70
8
  9
$DIMBLK
  1

  9
$DIMASO
 70
1
  9
$DIMSHO
 70
1
  9
$DIMPOST
  1

  9
$DIMAPOST
  1

  9
$DIMALT
 70
0
  9
$DIMALTD
 70
3
  9
$DIMALTF
 40
0.03937007874
  9
$DIMLFAC
 40
1.0
  9
$DIMTOFL
 70
1
  9
$DIMTVP
 40
0.0
  9
$DIMTIX
 70
0
  9
$DIMSOXD
 70
0
  9
$DIMSAH
 70
0
  9
$DIMBLK1
  1

  9
$DIMBLK2
  1

  9
$DIMSTYLE
  2
ISO-25
  9
$DIMCLRD
 70
0
  9
$DIMCLRE
 70
0
  9
$DIMCLRT
 70
0
  9
$DIMTFAC
 40
1.0
  9
$DIMGAP
 40
0.625
  9
$DIMJUST
 70
0
  9
$DIMSD1
 70
0
  9
$DIMSD2
 70
0
  9
$DIMTOLJ
 70
0
  9
$DIMTZIN
 70
8
  9
$DIMALTZ
 70
0
  9
$DIMALTTZ
 70
0
  9
$DIMUPT
 70
0
  9
$DIMDEC
 70
2
  9
$DIMTDEC
 70
2
  9
$DIMALTU
 70
2
  9
$DIMALTTD
 70
3
  9
$DIMTXSTY
  7
Standard
  9
$DIMAUNIT
 70
0
  9
$DIMADEC
 70
0
  9
$DIMALTRND
 40
0.0
  9
$DIMAZIN
 70
0
  9
$DIMDSEP
 70
44
  9
$DIMATFIT
 70
3
  9
$DIMFRAC
 70
0
  9
$DIMLDRBLK
  1

  9
$DIMLUNIT
 70
2
  9
$DIMLWD
 70
-2
  9
$DIMLWE
 70
-2
  9
$DIMTMOVE
 70
0
  9
$DIMFXL
 40
1.0
  9
$DIMFXLON
 70
0
  9
$DIMJOGANG
 40
0.785398163397
  9
$DIMTFILL
 70
0
  9
$DIMTFILLCLR
 70
0
  9
$DIMARCSYM
 70
0
  9
$DIMLTYPE
  6

  9
$DIMLTEX1
  6

  9
$DIMLTEX2
  6

  9
$DIMTXTDIRECTION
 70
0
  9
$LUNITS
 70
2
  9
$LUPREC
 70
4
  9
$SKETCHINC
 40
1.0
  9
$FILLETRAD
 40
10.0
  9
$AUNITS
 70
0
  9
$AUPREC
 70
2
  9
$MENU
  1
.
  9
$ELEVATION
 40
0.0
  9
$PELEVATION
 40
0.0
  9
$THICKNESS
 40
0.0
  9
$LIMCHECK
 70
0
  9
$CHAMFERA
 40
0.0
  9
$CHAMFERB
 40
0.0
  9
$CHAMFERC
 40
0.0
  9
$CHAMFERD
 40
0.0
  9
$SKPOLY
 70
0
  9
$TDCREATE
 40
2461321.894421296
  9
$TDUCREATE
 40
2458532.153996898
  9
$TDUPDATE
 40
2461321.894421296
  9
$TDUUPDATE
 40
2458532.1544311
  9
$TDINDWG
 40
0.0
  9
$TDUSRTIMER
 40
0.0
  9
$USRTIMER
 70
1
  9
$ANGBASE
 50
0.0
  9
$ANGDIR
 70
0
  9
$PDMODE
 70
0
  9
$PDSIZE
 40
0.0
  9
$PLINEWID
 40
0.0
  9
$SPLFRAME
 70
0
  9
$SPLINETYPE
 70
6
  9
$SPLINESEGS
 70
8
  9
$HANDSEED
  5
120
  9
$SURFTAB1
 70
6
  9
$SURFTAB2
 70
6
  9
$SURFTYPE
 70
6
  9
$SURFU
 70
6
  9
$SURFV
 70
6
  9
$UCSBASE
  2

  9
$UCSNAME
  2

  9
$UCSORG
 10
0.0
 20
0.0
 30
0.0
  9
$UCSXDIR
 10
1.0
 20
0.0
 30
0.0
  9
$UCSYDIR
 10
0.0
 20
1.0
 30
0.0
  9
$UCSORTHOREF
  2

  9
$UCSORTHOVIEW
 70
0
  9
$UCSORGTOP
 10
0.0
 20
0.0
 30
0.0
  9
$UCSORGBOTTOM
 10
0.0
 20
0.0
 30
0.0
  9
$UCSORGLEFT
 10
0.0
 20
0.0
 30
0.0
  9
$UCSORGRIGHT
 10
0.0
 20
0.0
 30
0.0
  9
$UCSORGFRONT
 10
0.0
 20
0.0
 30
0.0
  9
$UCSORGBACK
 10
0.0
 20
0.0
 30
0.0
  9
$PUCSBASE
  2

  9
$PUCSNAME
  2

  9
$PUCSORG
 10
0.0
 20
0.0
 30
0.0
  9
$PUCSXDIR
 10
1.0
 20
0.0
 30
0.0
  9
$PUCSYDIR
 10
0.0
 20
1.0
 30
0.0
  9
$PUCSORTHOREF
  2

  9
$PUCSORTHOVIEW
 70
0
  9
$PUCSORGTOP
 10
0.0
 20
0.0
 30
0.0
  9
$PUCSORGBOTTOM
 10
0.0
 20
0.0
 30
0.0
  9
$PUCSORGLEFT
 10
0.0
 20
0.0
 30
0.0
  9
$PUCSORGRIGHT
 10
0.0
 20
0.0
 30
0.0
  9
$PUCSORGFRONT
 10
0.0
 20
0.0
 30
0.0
  9
$PUCSORGBACK
 10
0.0
 20
0.0
 30
0.0
  9
$USERI1
 70
0
  9
$USERI2
 70
0
  9
$USERI3
 70
0
  9
$USERI4
 70
0
  9
$USERI5
 70
0
  9
$USERR1
 40
0.0
  9
$USERR2
 40
0.0
  9
$USERR3
 40
0.0
  9
$USERR4
 40
0.0
  9
$USERR5
 40
0.0
  9
$WORLDVIEW
 70
1
  9
$SHADEDGE
 70
3
  9
$SHADEDIF
 70
70
  9
$TILEMODE
 70
1
  9
$MAXACTVP
 70
64
  9
$PINSBASE
 10
0.0
 20
0.0
 30
0.0
  9
$PLIMCHECK
 70
0
  9
$PEXTMIN
 10
1e+20
 20
1e+20
 30
1e+20
  9
$PEXTMAX
 10
-1e+20
 20
-1e+20
 30
-1e+20
  9
$PLIMMIN
 10
0.0
 20
0.0
  9
$PLIMMAX
 10
420.0
 20
297.0
  9
$UNITMODE
 70
0
  9
$VISRETAIN
 70
1
  9
$PLINEGEN
 70
0
  9
$PSLTSCALE
 70
1
  9
$TREEDEPTH
 70
3020
  9
$CMLSTYLE
  2
Standard
  9
$CMLJUST
 70
0
  9
$CMLSCALE
 40
20.0
  9
$PROXYGRAPHICS
 70
1
  9
$MEASUREMENT
 70
1
  9
$CELWEIGHT
370
-1
  9
$ENDCAPS
280
0
  9
$JOINSTYLE
280
0
  9
$LWDISPLAY
290
0
  9
$INSUNITS
 70
4
  9
$HYPERLINKBASE
  1

  9
$STYLESHEET
  1

  9
$XEDIT
290
1
  9
$CEPSNTYPE
380
0
  9
$PSTYLEMODE
290
1
  9
$FINGERPRINTGUID
  2
{819916B1-5589-4775-8B7C-F7C0CC5DE4FE}
  9
$VERSIONGUID
  2
{E6F60A87-A0ED-4120-B5EA-3807AD6B1B6F}
  9
$EXTNAMES
290
1
  9
$PSVPSCALE
 40
0.0
  9
$OLESTARTUP
290
0
  9
$SORTENTS
280
127
  9
$INDEXCTL
280
0
  9
$HIDETEXT
280
1
  9
$XCLIPFRAME
280
1
  9
$HALOGAP
280
0
  9
$OBSCOLOR
 70
257
  9
$OBSLTYPE
280
0
  9
$INTERSECTIONDISPLAY
280
0
  9
$INTERSECTIONCOLOR
 70
257
  9
$DIMASSOC
280
2
  9
$PROJECTNAME
  1

  9
$CAMERADISPLAY
290
0
  9
$LENSLENGTH
 40
50.0
  9
$CAMERAHEIGHT
 40
0.0
  9
$STEPSPERSEC
 40
24.0
  9
$STEPSIZE
 40
100.0
  9
$3DDWFPREC
 40
2.0
  9
$PSOLWIDTH
 40
0.005
  9
$PSOLHEIGHT
 40
0.08
  9
$LOFTANG1
 40
1.570796326795
  9
$LOFTANG2
 40
1.570796326795
  9
$LOFTMAG1
 40
0.0
  9
$LOFTMAG2
 40
0.0
  9
$LOFTPARAM
 70
7
  9
$LOFTNORMALS
280
1
  9
$LATITUDE
 40
37.795
  9
$LONGITUDE
 40
-122.394
  9
$NORTHDIRECTION
 40
0.0
  9
$TIMEZONE
 70
-8000
  9
$LIGHTGLYPHDISPLAY
280
1
  9
$TILEMODELIGHTSYNCH
280
1
  9
$CMATERIAL
347
20
  9
$SOLIDHIST
280
0
  9
$SHOWHIST
280
1
  9
$DWFFRAME
280
2
  9
$DGNFRAME
280
2
  9
$REALWORLDSCALE
290
1
  9
$INTERFERECOLOR
 62
256
  9
$CSHADOW
280
0
  9
$SHADOWPLANELOCATION
 40
0.0
  0
ENDSEC
  0
SECTION
  2
CLASSES
  0
CLASS
  1
ACDBDICTIONARYWDFLT
  2
AcDbDictionaryWithDefault
  3
ObjectDBX Classes
 90
0
 91
0
280
0
281
0
  0
CLASS
  1
SUN
  2
AcDbSun
  3
SCENEOE
 90
1153
 91
0
280
0
281
0
  0
CLASS
  1
VISUALSTYLE
  2
AcDbVisualStyle
  3
ObjectDBX Classes
 90
4095
 91
0
280
0
281
0
  0
CLASS
  1
MATERIAL
  2
AcDbMaterial
  3
ObjectDBX Classes
 90
1153
 91
0
280
0
281
0
  0
CLASS
  1
SCALE
  2
AcDbScale
  3
ObjectDBX Classes
 90
1153
 91
0
280
0
281
0
  0
CLASS
  1
TABLESTYLE
  2
AcDbTableStyle
  3
ObjectDBX Classes
 90
4095
 91
0
280
0
281
0
  0
CLASS
  1
MLEADERSTYLE
  2
AcDbMLeaderStyle
  3
ACDB_MLEADERSTYLE_CLASS
 90
4095
 91
0
280
0
281
0
  0
CLASS
  1
DICTIONARYVAR
  2
AcDbDictionaryVar
  3
ObjectDBX Classes
 90
0
 91
0
280
0
281
0
  0
CLASS
  1
CELLSTYLEMAP
  2
AcDbCellStyleMap
  3
ObjectDBX Classes
 90
1152
 91
0
280
0
281
0
  0
CLASS
  1
MENTALRAYRENDERSETTINGS
  2
AcDbMentalRayRenderSettings
  3
SCENEOE
 90
1024
 91
0
280
0
281
0
  0
CLASS
  1
ACDBDETAILVIEWSTYLE
  2
AcDbDetailViewStyle
  3
ObjectDBX Classes
 90
1025
 91
0
280
0
281
0
  0
CLASS
  1
ACDBSECTIONVIEWSTYLE
  2
AcDbSectionViewStyle
  3
ObjectDBX Classes
 90
1025
 91
0
280
0
281
0
  0
CLASS
  1
RASTERVARIABLES
  2
AcDbRasterVariables
  3
ISM
 90
0
 91
0
280
0
281
0
  0
CLASS
  1
ACDBPLACEHOLDER
  2
AcDbPlaceHolder
  3
ObjectDBX Classes
 90
0
 91
0
280
0
281
0
  0
CLASS
  1
LAYOUT
  2
AcDbLayout
  3
ObjectDBX Classes
 90
0
 91
0
280
0
281
0
  0
ENDSEC
  0
SECTION
  2
TABLES
  0
TABLE
  2
VPORT
  5
8
330
0
100
AcDbSymbolTable
 70
1
  0
VPORT
  5
23
330
8
100
AcDbSymbolTableRecord
100
AcDbViewportTableRecord
  2
*Active
 70
0
 10
0.0
 20
0.0
 11
1.0
 21
1.0
 12
0.0
 22
0.0
 13
0.0
 23
0.0
 14
0.5
 24
0.5
 15
0.5
 25
0.5
 16
0.0
 26
0.0
 36
1.0
 17
0.0
 27
0.0
 37
0.0
 40
1000.0
 41
1.34
 42
50.0
 43
0.0
 44
0.0
 50
0.0
 51
0.0
 71
0
 72
1000
 73
1
 74
3
 75
0
 76
0
 77
0
 78
0
281
0
 65
0
146
0.0
  0
ENDTAB
  0
TABLE
  2
LTYPE
  5
2
330
0
100
AcDbSymbolTable
 70
3
  0
LTYPE
  5
24
330
2
100
AcDbSymbolTableRecord
100
AcDbLinetypeTableRecord
  2
ByBlock
 70
0
  3

 72
65
 73
0
 40
0.0
  0
LTYPE
  5
25
330
2
100
AcDbSymbolTableRecord
100
AcDbLinetypeTableRecord
  2
ByLayer
 70
0
  3

 72
65
 73
0
 40
0.0
  0
LTYPE
  5
26
330
2
100
AcDbSymbolTableRecord
100
AcDbLinetypeTableRecord
  2
Continuous
 70
0
  3

 72
65
 73
0
 40
0.0
  0
ENDTAB
  0
TABLE
  2
LAYER
  5
1
330
0
100
AcDbSymbolTable
 70
10
  0
LAYER
  5
27
330
1
100
AcDbSymbolTableRecord
100
AcDbLayerTableRecord
  2
0
 70
0
 62
7
  6
Continuous
370
-3
390
13
347
21
  0
LAYER
  5
28
330
1
100
AcDbSymbolTableRecord
100
AcDbLayerTableRecord
  2
Defpoints
 70
0
 62
7
  6
Continuous
290
0
370
-3
390
13
347
21
  0
LAYER
  5
2F
330
1
100
AcDbSymbolTableRecord
100
AcDbLayerTableRecord
  2
CUT_12MM
 70
0
 62
7
  6
Continuous
370
-3
390
13
347
21
  0
LAYER
  5
30
330
1
100
AcDbSymbolTableRecord
100
AcDbLayerTableRecord
  2
CUT_5MM
 70
0
 62
6
  6
Continuous
370
-3
390
13
347
21
  0
LAYER
  5
31
330
1
100
AcDbSymbolTableRecord
100
AcDbLayerTableRecord
  2
HOLE_THROUGH_12MM
 70
0
 62
150
  6
Continuous
370
-3
390
13
347
21
  0
LAYER
  5
32
330
1
100
AcDbSymbolTableRecord
100
AcDbLayerTableRecord
  2
HOLE_THROUGH_5MM
 70
0
 62
150
  6
Continuous
370
-3
390
13
347
21
  0
LAYER
  5
33
330
1
100
AcDbSymbolTableRecord
100
AcDbLayerTableRecord
  2
POCKET_DEPTH6
 70
0
 62
7
  6
Continuous
370
-3
390
13
347
21
  0
LAYER
  5
34
330
1
100
AcDbSymbolTableRecord
100
AcDbLayerTableRecord
  2
VIS_FILL_DO_NOT_MACHINE
 70
0
 62
7
  6
Continuous
370
-3
390
13
347
21
  0
LAYER
  5
35
330
1
100
AcDbSymbolTableRecord
100
AcDbLayerTableRecord
  2
REF_STOCK_DO_NOT_CUT
 70
0
 62
8
  6
Continuous
370
-3
390
13
347
21
  0
LAYER
  5
36
330
1
100
AcDbSymbolTableRecord
100
AcDbLayerTableRecord
  2
REF_TEXT_DO_NOT_CUT
 70
0
 62
7
  6
Continuous
370
-3
390
13
347
21
  0
ENDTAB
  0
TABLE
  2
STYLE
  5
5
330
0
100
AcDbSymbolTable
 70
1
  0
STYLE
  5
29
330
5
100
AcDbSymbolTableRecord
100
AcDbTextStyleTableRecord
  2
Standard
 70
0
 40
0.0
 41
1.0
 50
0.0
 71
0
 42
2.5
  3
txt
  4

  0
ENDTAB
  0
TABLE
  2
VIEW
  5
7
330
0
100
AcDbSymbolTable
 70
0
  0
ENDTAB
  0
TABLE
  2
UCS
  5
6
330
0
100
AcDbSymbolTable
 70
0
  0
ENDTAB
  0
TABLE
  2
APPID
  5
3
330
0
100
AcDbSymbolTable
 70
3
  0
APPID
  5
2A
330
3
100
AcDbSymbolTableRecord
100
AcDbRegAppTableRecord
  2
ACAD
 70
0
  0
APPID
  5
118
330
3
100
AcDbSymbolTableRecord
100
AcDbRegAppTableRecord
  2
HATCHBACKGROUNDCOLOR
 70
0
  0
APPID
  5
119
330
3
100
AcDbSymbolTableRecord
100
AcDbRegAppTableRecord
  2
EZDXF
 70
0
  0
ENDTAB
  0
TABLE
  2
DIMSTYLE
  5
4
330
0
100
AcDbSymbolTable
 70
1
100
AcDbDimStyleTable
  0
DIMSTYLE
105
2B
330
4
100
AcDbSymbolTableRecord
100
AcDbDimStyleTableRecord
  2
Standard
 70
0
 40
1.0
 41
2.5
 42
0.625
 43
3.75
 44
1.25
 45
0.0
 46
0.0
 47
0.0
 48
0.0
 49
2.5
140
2.5
141
2.5
142
0.0
143
0.03937007874
144
1.0
145
0.0
146
1.0
147
0.625
148
0.0
 69
0
 70
0
 71
0
 72
0
 73
0
 74
0
 75
0
 76
0
 77
1
 78
8
 79
3
170
0
171
3
172
1
173
0
174
0
175
0
176
0
177
0
178
0
179
2
271
2
272
2
273
2
274
3
275
0
276
0
277
2
278
44
279
0
280
0
281
0
282
0
283
0
284
8
285
0
286
0
288
0
289
3
290
0
371
-2
372
-2
  0
ENDTAB
  0
TABLE
  2
BLOCK_RECORD
  5
9
330
0
100
AcDbSymbolTable
 70
2
  0
BLOCK_RECORD
  5
17
330
9
100
AcDbSymbolTableRecord
100
AcDbBlockTableRecord
  2
*Model_Space
340
1A
 70
0
280
1
281
0
  0
BLOCK_RECORD
  5
1B
330
9
100
AcDbSymbolTableRecord
100
AcDbBlockTableRecord
  2
*Paper_Space
340
1E
 70
0
280
1
281
0
  0
ENDTAB
  0
ENDSEC
  0
SECTION
  2
BLOCKS
  0
BLOCK
  5
18
330
17
100
AcDbEntity
  8
0
100
AcDbBlockBegin
  2
*Model_Space
 70
0
 10
0.0
 20
0.0
 30
0.0
  3
*Model_Space
  1

  0
ENDBLK
  5
19
330
17
100
AcDbEntity
  8
0
100
AcDbBlockEnd
  0
BLOCK
  5
1C
330
1B
100
AcDbEntity
  8
0
100
AcDbBlockBegin
  2
*Paper_Space
 70
0
 10
0.0
 20
0.0
 30
0.0
  3
*Paper_Space
  1

  0
ENDBLK
  5
1D
330
1B
100
AcDbEntity
  8
0
100
AcDbBlockEnd
  0
ENDSEC
  0
SECTION
  2
ENTITIES
  0
LWPOLYLINE
  5
37
330
17
100
AcDbEntity
  8
CUT_12MM
 62
7
100
AcDbPolyline
 90
12
 70
1
 10
1578.893126
 20
1361.469307
 10
1578.893126
 20
2417.469307
 10
1720.893126
 20
2417.469307
 10
1720.893126
 20
2273.469307
 10
1681.893126
 20
2273.469307
 42
0.4142135623730951
 10
1678.893126
 20
2270.469307
 10
1678.893126
 20
1324.469307
 10
1677.893126
 20
1324.469307
 42
0.4142135623730951
 10
1674.893126
 20
1321.469307
 10
1586.893126
 20
1321.469307
 10
1586.893126
 20
1358.469307
 42
0.4142135623730951
 10
1583.893126
 20
1361.469307
  0
LWPOLYLINE
  5
38
330
17
100
AcDbEntity
  8
HOLE_THROUGH_12MM
 62
150
100
AcDbPolyline
 90
8
 70
1
 10
1628.893126
 20
1365.7119476871194
 10
1628.893126
 20
1369.2266663128808
 42
-1.0000000000000533
 10
1633.1357666871193
 20
1373.469307
 10
1669.6504853128806
 20
1373.469307
 42
-1.0000000000000535
 10
1673.893126
 20
1369.2266663128808
 10
1673.893126
 20
1365.7119476871194
 42
-1.0000000000000535
 10
1669.6504853128806
 20
1361.469307
 10
1633.1357666871193
 20
1361.469307
 42
-1.0000000000000533
  0
HATCH
  5
39
330
17
100
AcDbEntity
  8
VIS_FILL_DO_NOT_MACHINE
 62
150
100
AcDbHatch
 10
0.0
 20
0.0
 30
0.0
210
0.0
220
0.0
230
1.0
  2
SOLID
 70
1
 71
0
 91
1
 92
3
 72
1
 73
1
 93
8
 10
1628.893126
 20
1365.7119476871194
 42
0.0
 10
1628.893126
 20
1369.2266663128808
 42
-1.0000000000000533
 10
1633.1357666871193
 20
1373.469307
 42
0.0
 10
1669.6504853128806
 20
1373.469307
 42
-1.0000000000000535
 10
1673.893126
 20
1369.2266663128808
 42
0.0
 10
1673.893126
 20
1365.7119476871194
 42
-1.0000000000000535
 10
1669.6504853128806
 20
1361.469307
 42
0.0
 10
1633.1357666871193
 20
1361.469307
 42
-1.0000000000000533
 97
0
 75
0
 76
1
 98
0
  0
LWPOLYLINE
  5
3A
330
17
100
AcDbEntity
  8
HOLE_THROUGH_12MM
 62
150
100
AcDbPolyline
 90
11
 70
1
 10
1628.893126
 20
1762.7119476871194
 10
1628.893126
 20
1766.2266663128808
 42
-1.0000000000000533
 10
1633.1357666871193
 20
1770.469307
 10
1669.6504853128806
 20
1770.469307
 42
-1.0000000000000535
 10
1673.893126
 20
1766.2266663128808
 10
1673.893126
 20
1755.469307
 42
-0.4142135623730951
 10
1670.893126
 20
1752.469307
 10
1657.893126
 20
1752.469307
 42
-0.4142135623730951
 10
1654.893126
 20
1755.469307
 10
1654.893126
 20
1758.469307
 10
1633.1357666871193
 20
1758.469307
 42
-1.0000000000000533
  0
HATCH
  5
3B
330
17
100
AcDbEntity
  8
VIS_FILL_DO_NOT_MACHINE
 62
150
100
AcDbHatch
 10
0.0
 20
0.0
 30
0.0
210
0.0
220
0.0
230
1.0
  2
SOLID
 70
1
 71
0
 91
1
 92
3
 72
1
 73
1
 93
11
 10
1628.893126
 20
1762.7119476871194
 42
0.0
 10
1628.893126
 20
1766.2266663128808
 42
-1.0000000000000533
 10
1633.1357666871193
 20
1770.469307
 42
0.0
 10
1669.6504853128806
 20
1770.469307
 42
-1.0000000000000535
 10
1673.893126
 20
1766.2266663128808
 42
0.0
 10
1673.893126
 20
1755.469307
 42
-0.4142135623730951
 10
1670.893126
 20
1752.469307
 42
0.0
 10
1657.893126
 20
1752.469307
 42
-0.4142135623730951
 10
1654.893126
 20
1755.469307
 42
0.0
 10
1654.893126
 20
1758.469307
 42
0.0
 10
1633.1357666871193
 20
1758.469307
 42
-1.0000000000000533
 97
0
 75
0
 76
1
 98
0
  0
LWPOLYLINE
  5
3C
330
17
100
AcDbEntity
  8
HOLE_THROUGH_12MM
 62
150
100
AcDbPolyline
 90
11
 70
1
 10
1628.893126
 20
2159.711947687119
 10
1628.893126
 20
2163.2266663128808
 42
-1.0000000000000266
 10
1633.1357666871193
 20
2167.469307
 10
1669.6504853128806
 20
2167.469307
 42
-1.0000000000000266
 10
1673.893126
 20
2163.2266663128808
 10
1673.893126
 20
2152.469307
 42
-0.4142135623730951
 10
1670.893126
 20
2149.469307
 10
1657.893126
 20
2149.469307
 42
-0.4142135623730951
 10
1654.893126
 20
2152.469307
 10
1654.893126
 20
2155.469307
 10
1633.1357666871193
 20
2155.469307
 42
-1.0000000000000266
  0
HATCH
  5
3D
330
17
100
AcDbEntity
  8
VIS_FILL_DO_NOT_MACHINE
 62
150
100
AcDbHatch
 10
0.0
 20
0.0
 30
0.0
210
0.0
220
0.0
230
1.0
  2
SOLID
 70
1
 71
0
 91
1
 92
3
 72
1
 73
1
 93
11
 10
1628.893126
 20
2159.711947687119
 42
0.0
 10
1628.893126
 20
2163.2266663128808
 42
-1.0000000000000266
 10
1633.1357666871193
 20
2167.469307
 42
0.0
 10
1669.6504853128806
 20
2167.469307
 42
-1.0000000000000266
 10
1673.893126
 20
2163.2266663128808
 42
0.0
 10
1673.893126
 20
2152.469307
 42
-0.4142135623730951
 10
1670.893126
 20
2149.469307
 42
0.0
 10
1657.893126
 20
2149.469307
 42
-0.4142135623730951
 10
1654.893126
 20
2152.469307
 42
0.0
 10
1654.893126
 20
2155.469307
 42
0.0
 10
1633.1357666871193
 20
2155.469307
 42
-1.0000000000000266
 97
0
 75
0
 76
1
 98
0
  0
LWPOLYLINE
  5
3E
330
17
100
AcDbEntity
  8
HOLE_THROUGH_12MM
 62
150
100
AcDbPolyline
 90
11
 70
1
 10
1628.893126
 20
2287.711947687119
 10
1628.893126
 20
2291.2266663128808
 42
-1.0000000000000266
 10
1633.1357666871193
 20
2295.469307
 10
1669.6504853128806
 20
2295.469307
 42
-1.0000000000000266
 10
1673.893126
 20
2291.2266663128808
 10
1673.893126
 20
2280.469307
 42
-0.4142135623730951
 10
1670.893126
 20
2277.469307
 10
1657.893126
 20
2277.469307
 42
-0.4142135623730951
 10
1654.893126
 20
2280.469307
 10
1654.893126
 20
2283.469307
 10
1633.1357666871193
 20
2283.469307
 42
-1.0000000000000266
  0
HATCH
  5
3F
330
17
100
AcDbEntity
  8
VIS_FILL_DO_NOT_MACHINE
 62
150
100
AcDbHatch
 10
0.0
 20
0.0
 30
0.0
210
0.0
220
0.0
230
1.0
  2
SOLID
 70
1
 71
0
 91
1
 92
3
 72
1
 73
1
 93
11
 10
1628.893126
 20
2287.711947687119
 42
0.0
 10
1628.893126
 20
2291.2266663128808
 42
-1.0000000000000266
 10
1633.1357666871193
 20
2295.469307
 42
0.0
 10
1669.6504853128806
 20
2295.469307
 42
-1.0000000000000266
 10
1673.893126
 20
2291.2266663128808
 42
0.0
 10
1673.893126
 20
2280.469307
 42
-0.4142135623730951
 10
1670.893126
 20
2277.469307
 42
0.0
 10
1657.893126
 20
2277.469307
 42
-0.4142135623730951
 10
1654.893126
 20
2280.469307
 42
0.0
 10
1654.893126
 20
2283.469307
 42
0.0
 10
1633.1357666871193
 20
2283.469307
 42
-1.0000000000000266
 97
0
 75
0
 76
1
 98
0
  0
LWPOLYLINE
  5
40
330
17
100
AcDbEntity
  8
HOLE_THROUGH_12MM
 62
150
100
AcDbPolyline
 90
4
 70
1
 10
1670.893126
 20
2405.469307
 10
1657.893126
 20
2405.469307
 42
-0.9999999999999999
 10
1657.893126
 20
2411.469307
 10
1670.893126
 20
2411.469307
 42
-0.9999999999999999
  0
HATCH
  5
41
330
17
100
AcDbEntity
  8
VIS_FILL_DO_NOT_MACHINE
 62
150
100
AcDbHatch
 10
0.0
 20
0.0
 30
0.0
210
0.0
220
0.0
230
1.0
  2
SOLID
 70
1
 71
0
 91
1
 92
3
 72
1
 73
1
 93
4
 10
1670.893126
 20
2405.469307
 42
0.0
 10
1657.893126
 20
2405.469307
 42
-0.9999999999999999
 10
1657.893126
 20
2411.469307
 42
0.0
 10
1670.893126
 20
2411.469307
 42
-0.9999999999999999
 97
0
 75
0
 76
1
 98
0
  0
LWPOLYLINE
  5
42
330
17
100
AcDbEntity
  8
POCKET_DEPTH6
 62
7
100
AcDbPolyline
 90
6
 70
1
 10
1675.0322150273598
 20
1322.3721848470132
 42
-0.3272598297342213
 10
1677.893126
 20
1324.469307
 10
1678.893126
 20
1324.469307
 10
1678.893126
 20
2417.469307
 10
1673.893126
 20
2417.469307
 10
1673.893126
 20
1324.469307
 42
0.25405478900673223
  0
HATCH
  5
43
330
17
100
AcDbEntity
  8
VIS_FILL_DO_NOT_MACHINE
 62
7
100
AcDbHatch
 10
0.0
 20
0.0
 30
0.0
210
0.0
220
0.0
230
1.0
  2
SOLID
 70
1
 71
0
 91
1
 92
3
 72
1
 73
1
 93
6
 10
1675.0322150273598
 20
1322.3721848470132
 42
-0.3272598297342213
 10
1677.893126
 20
1324.469307
 42
0.0
 10
1678.893126
 20
1324.469307
 42
0.0
 10
1678.893126
 20
2417.469307
 42
0.0
 10
1673.893126
 20
2417.469307
 42
0.0
 10
1673.893126
 20
1324.469307
 42
0.25405478900673223
 97
0
 75
0
 76
1
 98
0
  0
LWPOLYLINE
  5
44
330
17
100
AcDbEntity
  8
CUT_12MM
 62
7
100
AcDbPolyline
 90
4
 70
1
 10
1578.947341
 20
819.469307
 10
1578.947341
 20
329.469307
 10
1898.947341
 20
329.469307
 10
1898.947341
 20
819.469307
  0
LWPOLYLINE
  5
45
330
17
100
AcDbEntity
  8
POCKET_DEPTH6
 62
7
100
AcDbPolyline
 90
12
 70
1
 10
1744.947341
 20
329.469307
 10
1732.947341
 20
329.469307
 10
1732.947341
 20
353.469307
 10
1578.947341
 20
353.469307
 10
1578.947341
 20
365.469307
 10
1590.947341
 20
365.469307
 10
1590.947341
 20
565.4693070000001
 42
-0.9999999999999999
 10
1595.947341
 20
565.4693070000001
 10
1595.947341
 20
365.469307
 10
1898.947341
 20
365.469307
 10
1898.947341
 20
353.469307
 10
1744.947341
 20
353.469307
  0
HATCH
  5
46
330
17
100
AcDbEntity
  8
VIS_FILL_DO_NOT_MACHINE
 62
7
100
AcDbHatch
 10
0.0
 20
0.0
 30
0.0
210
0.0
220
0.0
230
1.0
  2
SOLID
 70
1
 71
0
 91
1
 92
3
 72
1
 73
1
 93
12
 10
1744.947341
 20
329.469307
 42
0.0
 10
1732.947341
 20
329.469307
 42
0.0
 10
1732.947341
 20
353.469307
 42
0.0
 10
1578.947341
 20
353.469307
 42
0.0
 10
1578.947341
 20
365.469307
 42
0.0
 10
1590.947341
 20
365.469307
 42
0.0
 10
1590.947341
 20
565.4693070000001
 42
-0.9999999999999999
 10
1595.947341
 20
565.4693070000001
 42
0.0
 10
1595.947341
 20
365.469307
 42
0.0
 10
1898.947341
 20
365.469307
 42
0.0
 10
1898.947341
 20
353.469307
 42
0.0
 10
1744.947341
 20
353.469307
 42
0.0
 97
0
 75
0
 76
1
 98
0
  0
LWPOLYLINE
  5
47
330
17
100
AcDbEntity
  8
POCKET_DEPTH6
 62
7
100
AcDbPolyline
 90
10
 70
1
 10
1732.947341
 20
763.7119476871194
 10
1732.947341
 20
807.469307
 10
1578.947341
 20
807.469307
 10
1578.947341
 20
819.469307
 10
1898.947341
 20
819.469307
 10
1898.947341
 20
807.469307
 10
1744.947341
 20
807.469307
 10
1744.947341
 20
763.7119476871194
 42
-1.0000000000000133
 10
1740.704700312881
 20
759.469307
 10
1737.1899816871191
 20
759.469307
 42
-1.000000000000013
  0
HATCH
  5
48
330
17
100
AcDbEntity
  8
VIS_FILL_DO_NOT_MACHINE
 62
7
100
AcDbHatch
 10
0.0
 20
0.0
 30
0.0
210
0.0
220
0.0
230
1.0
  2
SOLID
 70
1
 71
0
 91
1
 92
3
 72
1
 73
1
 93
10
 10
1732.947341
 20
763.7119476871194
 42
0.0
 10
1732.947341
 20
807.469307
 42
0.0
 10
1578.947341
 20
807.469307
 42
0.0
 10
1578.947341
 20
819.469307
 42
0.0
 10
1898.947341
 20
819.469307
 42
0.0
 10
1898.947341
 20
807.469307
 42
0.0
 10
1744.947341
 20
807.469307
 42
0.0
 10
1744.947341
 20
763.7119476871194
 42
-1.0000000000000133
 10
1740.704700312881
 20
759.469307
 42
0.0
 10
1737.1899816871191
 20
759.469307
 42
-1.000000000000013
 97
0
 75
0
 76
1
 98
0
  0
LWPOLYLINE
  5
49
330
17
100
AcDbEntity
  8
CUT_12MM
 62
7
100
AcDbPolyline
 90
4
 70
1
 10
1578.947341
 20
1315.469307
 10
1578.947341
 20
825.469307
 10
1898.947341
 20
825.469307
 10
1898.947341
 20
1315.469307
  0
LWPOLYLINE
  5
4A
330
17
100
AcDbEntity
  8
POCKET_DEPTH6
 62
7
100
AcDbPolyline
 90
12
 70
1
 10
1744.947341
 20
825.469307
 10
1732.947341
 20
825.469307
 10
1732.947341
 20
849.469307
 10
1578.947341
 20
849.469307
 10
1578.947341
 20
861.469307
 10
1590.947341
 20
861.469307
 10
1590.947341
 20
1061.4693069999998
 42
-0.9999999999999999
 10
1595.947341
 20
1061.4693069999998
 10
1595.947341
 20
861.469307
 10
1898.947341
 20
861.469307
 10
1898.947341
 20
849.469307
 10
1744.947341
 20
849.469307
  0
HATCH
  5
4B
330
17
100
AcDbEntity
  8
VIS_FILL_DO_NOT_MACHINE
 62
7
100
AcDbHatch
 10
0.0
 20
0.0
 30
0.0
210
0.0
220
0.0
230
1.0
  2
SOLID
 70
1
 71
0
 91
1
 92
3
 72
1
 73
1
 93
12
 10
1744.947341
 20
825.469307
 42
0.0
 10
1732.947341
 20
825.469307
 42
0.0
 10
1732.947341
 20
849.469307
 42
0.0
 10
1578.947341
 20
849.469307
 42
0.0
 10
1578.947341
 20
861.469307
 42
0.0
 10
1590.947341
 20
861.469307
 42
0.0
 10
1590.947341
 20
1061.4693069999998
 42
-0.9999999999999999
 10
1595.947341
 20
1061.4693069999998
 42
0.0
 10
1595.947341
 20
861.469307
 42
0.0
 10
1898.947341
 20
861.469307
 42
0.0
 10
1898.947341
 20
849.469307
 42
0.0
 10
1744.947341
 20
849.469307
 42
0.0
 97
0
 75
0
 76
1
 98
0
  0
LWPOLYLINE
  5
4C
330
17
100
AcDbEntity
  8
POCKET_DEPTH6
 62
7
100
AcDbPolyline
 90
10
 70
1
 10
1732.947341
 20
1259.7119476871194
 10
1732.947341
 20
1303.469307
 10
1578.947341
 20
1303.469307
 10
1578.947341
 20
1315.469307
 10
1898.947341
 20
1315.469307
 10
1898.947341
 20
1303.469307
 10
1744.947341
 20
1303.469307
 10
1744.947341
 20
1259.7119476871194
 42
-1.0000000000000535
 10
1740.7047003128807
 20
1255.469307
 10
1737.1899816871194
 20
1255.469307
 42
-1.0000000000000533
  0
HATCH
  5
4D
330
17
100
AcDbEntity
  8
VIS_FILL_DO_NOT_MACHINE
 62
7
100
AcDbHatch
 10
0.0
 20
0.0
 30
0.0
210
0.0
220
0.0
230
1.0
  2
SOLID
 70
1
 71
0
 91
1
 92
3
 72
1
 73
1
 93
10
 10
1732.947341
 20
1259.7119476871194
 42
0.0
 10
1732.947341
 20
1303.469307
 42
0.0
 10
1578.947341
 20
1303.469307
 42
0.0
 10
1578.947341
 20
1315.469307
 42
0.0
 10
1898.947341
 20
1315.469307
 42
0.0
 10
1898.947341
 20
1303.469307
 42
0.0
 10
1744.947341
 20
1303.469307
 42
0.0
 10
1744.947341
 20
1259.7119476871194
 42
-1.0000000000000535
 10
1740.7047003128807
 20
1255.469307
 42
0.0
 10
1737.1899816871194
 20
1255.469307
 42
-1.0000000000000533
 97
0
 75
0
 76
1
 98
0
  0
LWPOLYLINE
  5
4E
330
17
100
AcDbEntity
  8
CUT_12MM
 62
7
100
AcDbPolyline
 90
4
 70
1
 10
1607.209658
 20
22.305637
 10
1887.209658
 20
22.305637
 10
1887.209658
 20
302.305637
 10
1607.209658
 20
302.305637
  0
LWPOLYLINE
  5
4F
330
17
100
AcDbEntity
  8
CUT_12MM
 62
7
100
AcDbPolyline
 90
15
 70
1
 10
1691.893126
 20
2267.469307
 10
1736.893126
 20
2267.469307
 10
1736.893126
 20
2259.711947687119
 42
1.0000000000000266
 10
1741.1357666871193
 20
2255.469307
 10
1786.893126
 20
2255.469307
 10
1786.893126
 20
1579.469307
 10
1741.1357666871193
 20
1579.469307
 42
1.0000000000000533
 10
1736.893126
 20
1575.2266663128808
 10
1736.893126
 20
1571.7119476871194
 42
1.0000000000000533
 10
1741.1357666871193
 20
1567.469307
 10
1786.893126
 20
1567.469307
 10
1686.893126
 20
1417.469307
 10
1686.893126
 20
1564.469307
 10
1689.393126
 20
1564.469307
 42
0.4142135623730951
 10
1691.893126
 20
1566.969307
  0
LWPOLYLINE
  5
50
330
17
100
AcDbEntity
  8
POCKET_DEPTH6
 62
7
100
AcDbPolyline
 90
4
 70
1
 10
1691.893126
 20
1923.469307
 10
1691.893126
 20
1911.469307
 10
1786.893126
 20
1911.469307
 10
1786.893126
 20
1923.469307
  0
HATCH
  5
51
330
17
100
AcDbEntity
  8
VIS_FILL_DO_NOT_MACHINE
 62
7
100
AcDbHatch
 10
0.0
 20
0.0
 30
0.0
210
0.0
220
0.0
230
1.0
  2
SOLID
 70
1
 71
0
 91
1
 92
3
 72
0
 73
1
 93
4
 10
1691.893126
 20
1923.469307
 10
1691.893126
 20
1911.469307
 10
1786.893126
 20
1911.469307
 10
1786.893126
 20
1923.469307
 97
0
 75
0
 76
1
 98
0
  0
LWPOLYLINE
  5
52
330
17
100
AcDbEntity
  8
CUT_12MM
 62
7
100
AcDbPolyline
 90
4
 70
1
 10
1787.385918
 20
1477.469307
 10
1737.385918
 20
1477.469307
 10
1737.385918
 20
1321.469307
 10
1787.385918
 20
1321.469307
  0
LWPOLYLINE
  5
53
330
17
100
AcDbEntity
  8
CUT_12MM
 62
7
100
AcDbPolyline
 90
12
 70
1
 10
1793.385918
 20
1324.469307
 10
1793.385918
 20
2270.469307
 42
0.4142135623730951
 10
1790.385918
 20
2273.469307
 10
1751.385918
 20
2273.469307
 10
1751.385918
 20
2417.469307
 10
1893.385918
 20
2417.469307
 10
1893.385918
 20
1361.469307
 10
1888.385918
 20
1361.469307
 42
0.4142135623730951
 10
1885.385918
 20
1358.469307
 10
1885.385918
 20
1321.469307
 10
1797.385918
 20
1321.469307
 42
0.4142135623730951
 10
1794.385918
 20
1324.469307
  0
LWPOLYLINE
  5
54
330
17
100
AcDbEntity
  8
HOLE_THROUGH_12MM
 62
150
100
AcDbPolyline
 90
8
 70
1
 10
1798.385918
 20
1365.7119476871194
 10
1798.385918
 20
1369.2266663128808
 42
-1.0000000000000533
 10
1802.6285586871193
 20
1373.469307
 10
1839.1432773128806
 20
1373.469307
 42
-1.0000000000000535
 10
1843.385918
 20
1369.2266663128808
 10
1843.385918
 20
1365.7119476871194
 42
-1.0000000000000535
 10
1839.1432773128806
 20
1361.469307
 10
1802.6285586871193
 20
1361.469307
 42
-1.0000000000000533
  0
HATCH
  5
55
330
17
100
AcDbEntity
  8
VIS_FILL_DO_NOT_MACHINE
 62
150
100
AcDbHatch
 10
0.0
 20
0.0
 30
0.0
210
0.0
220
0.0
230
1.0
  2
SOLID
 70
1
 71
0
 91
1
 92
3
 72
1
 73
1
 93
8
 10
1798.385918
 20
1365.7119476871194
 42
0.0
 10
1798.385918
 20
1369.2266663128808
 42
-1.0000000000000533
 10
1802.6285586871193
 20
1373.469307
 42
0.0
 10
1839.1432773128806
 20
1373.469307
 42
-1.0000000000000535
 10
1843.385918
 20
1369.2266663128808
 42
0.0
 10
1843.385918
 20
1365.7119476871194
 42
-1.0000000000000535
 10
1839.1432773128806
 20
1361.469307
 42
0.0
 10
1802.6285586871193
 20
1361.469307
 42
-1.0000000000000533
 97
0
 75
0
 76
1
 98
0
  0
LWPOLYLINE
  5
56
330
17
100
AcDbEntity
  8
HOLE_THROUGH_12MM
 62
150
100
AcDbPolyline
 90
8
 70
1
 10
1798.385918
 20
1762.7119476871194
 10
1798.385918
 20
1766.2266663128808
 42
-1.0000000000000533
 10
1802.6285586871193
 20
1770.469307
 10
1839.1432773128806
 20
1770.469307
 42
-1.0000000000000535
 10
1843.385918
 20
1766.2266663128808
 10
1843.385918
 20
1762.7119476871194
 42
-1.0000000000000535
 10
1839.1432773128806
 20
1758.469307
 10
1802.6285586871193
 20
1758.469307
 42
-1.0000000000000533
  0
HATCH
  5
57
330
17
100
AcDbEntity
  8
VIS_FILL_DO_NOT_MACHINE
 62
150
100
AcDbHatch
 10
0.0
 20
0.0
 30
0.0
210
0.0
220
0.0
230
1.0
  2
SOLID
 70
1
 71
0
 91
1
 92
3
 72
1
 73
1
 93
8
 10
1798.385918
 20
1762.7119476871194
 42
0.0
 10
1798.385918
 20
1766.2266663128808
 42
-1.0000000000000533
 10
1802.6285586871193
 20
1770.469307
 42
0.0
 10
1839.1432773128806
 20
1770.469307
 42
-1.0000000000000535
 10
1843.385918
 20
1766.2266663128808
 42
0.0
 10
1843.385918
 20
1762.7119476871194
 42
-1.0000000000000535
 10
1839.1432773128806
 20
1758.469307
 42
0.0
 10
1802.6285586871193
 20
1758.469307
 42
-1.0000000000000533
 97
0
 75
0
 76
1
 98
0
  0
LWPOLYLINE
  5
58
330
17
100
AcDbEntity
  8
HOLE_THROUGH_12MM
 62
150
100
AcDbPolyline
 90
8
 70
1
 10
1798.385918
 20
2159.711947687119
 10
1798.385918
 20
2163.2266663128808
 42
-1.0000000000000266
 10
1802.6285586871193
 20
2167.469307
 10
1839.1432773128806
 20
2167.469307
 42
-1.0000000000000266
 10
1843.385918
 20
2163.2266663128808
 10
1843.385918
 20
2159.711947687119
 42
-1.0000000000000266
 10
1839.1432773128806
 20
2155.469307
 10
1802.6285586871193
 20
2155.469307
 42
-1.0000000000000266
  0
HATCH
  5
59
330
17
100
AcDbEntity
  8
VIS_FILL_DO_NOT_MACHINE
 62
150
100
AcDbHatch
 10
0.0
 20
0.0
 30
0.0
210
0.0
220
0.0
230
1.0
  2
SOLID
 70
1
 71
0
 91
1
 92
3
 72
1
 73
1
 93
8
 10
1798.385918
 20
2159.711947687119
 42
0.0
 10
1798.385918
 20
2163.2266663128808
 42
-1.0000000000000266
 10
1802.6285586871193
 20
2167.469307
 42
0.0
 10
1839.1432773128806
 20
2167.469307
 42
-1.0000000000000266
 10
1843.385918
 20
2163.2266663128808
 42
0.0
 10
1843.385918
 20
2159.711947687119
 42
-1.0000000000000266
 10
1839.1432773128806
 20
2155.469307
 42
0.0
 10
1802.6285586871193
 20
2155.469307
 42
-1.0000000000000266
 97
0
 75
0
 76
1
 98
0
  0
LWPOLYLINE
  5
5A
330
17
100
AcDbEntity
  8
HOLE_THROUGH_12MM
 62
150
100
AcDbPolyline
 90
8
 70
1
 10
1798.385918
 20
2287.711947687119
 10
1798.385918
 20
2291.2266663128808
 42
-1.0000000000000266
 10
1802.6285586871193
 20
2295.469307
 10
1839.1432773128806
 20
2295.469307
 42
-1.0000000000000266
 10
1843.385918
 20
2291.2266663128808
 10
1843.385918
 20
2287.711947687119
 42
-1.0000000000000266
 10
1839.1432773128806
 20
2283.469307
 10
1802.6285586871193
 20
2283.469307
 42
-1.0000000000000266
  0
HATCH
  5
5B
330
17
100
AcDbEntity
  8
VIS_FILL_DO_NOT_MACHINE
 62
150
100
AcDbHatch
 10
0.0
 20
0.0
 30
0.0
210
0.0
220
0.0
230
1.0
  2
SOLID
 70
1
 71
0
 91
1
 92
3
 72
1
 73
1
 93
8
 10
1798.385918
 20
2287.711947687119
 42
0.0
 10
1798.385918
 20
2291.2266663128808
 42
-1.0000000000000266
 10
1802.6285586871193
 20
2295.469307
 42
0.0
 10
1839.1432773128806
 20
2295.469307
 42
-1.0000000000000266
 10
1843.385918
 20
2291.2266663128808
 42
0.0
 10
1843.385918
 20
2287.711947687119
 42
-1.0000000000000266
 10
1839.1432773128806
 20
2283.469307
 42
0.0
 10
1802.6285586871193
 20
2283.469307
 42
-1.0000000000000266
 97
0
 75
0
 76
1
 98
0
  0
LWPOLYLINE
  5
5C
330
17
100
AcDbEntity
  8
POCKET_DEPTH6
 62
7
100
AcDbPolyline
 90
6
 70
1
 10
1798.385918
 20
1324.469307
 10
1798.385918
 20
2417.469307
 10
1793.385918
 20
2417.469307
 10
1793.385918
 20
1324.469307
 10
1794.385918
 20
1324.469307
 42
-0.3272598297342213
 10
1797.24682897264
 20
1322.3721848470132
 42
0.2540547890067323
  0
HATCH
  5
5D
330
17
100
AcDbEntity
  8
VIS_FILL_DO_NOT_MACHINE
 62
7
100
AcDbHatch
 10
0.0
 20
0.0
 30
0.0
210
0.0
220
0.0
230
1.0
  2
SOLID
 70
1
 71
0
 91
1
 92
3
 72
1
 73
1
 93
6
 10
1798.385918
 20
1324.469307
 42
0.0
 10
1798.385918
 20
2417.469307
 42
0.0
 10
1793.385918
 20
2417.469307
 42
0.0
 10
1793.385918
 20
1324.469307
 42
0.0
 10
1794.385918
 20
1324.469307
 42
-0.3272598297342213
 10
1797.24682897264
 20
1322.3721848470132
 42
0.2540547890067323
 97
0
 75
0
 76
1
 98
0
  0
LWPOLYLINE
  5
5E
330
17
100
AcDbEntity
  8
CUT_12MM
 62
7
100
AcDbPolyline
 90
6
 70
1
 10
2049.385918
 20
2417.469307
 10
1899.385918
 20
2417.469307
 10
1899.385918
 20
1717.469307
 10
1999.385918
 20
1567.469307
 10
1999.385918
 20
1217.469307
 10
2049.385918
 20
1217.469307
  0
LWPOLYLINE
  5
5F
330
17
100
AcDbEntity
  8
POCKET_DEPTH6
 62
7
100
AcDbPolyline
 90
12
 70
1
 10
2049.385918
 20
1217.469307
 10
1999.385918
 20
1217.469307
 10
1999.385918
 20
1717.469307
 10
1899.385918
 20
1717.469307
 10
1899.385918
 20
1729.469307
 10
2037.1432773128806
 20
1729.469307
 42
-1.0000000000000535
 10
2041.385918
 20
1725.2266663128808
 10
2041.385918
 20
1721.7119476871194
 42
-1.0000000000000535
 10
2037.1432773128806
 20
1717.469307
 10
2004.385918
 20
1717.469307
 10
2004.385918
 20
1229.469307
 10
2049.385918
 20
1229.469307
  0
HATCH
  5
60
330
17
100
AcDbEntity
  8
VIS_FILL_DO_NOT_MACHINE
 62
7
100
AcDbHatch
 10
0.0
 20
0.0
 30
0.0
210
0.0
220
0.0
230
1.0
  2
SOLID
 70
1
 71
0
 91
1
 92
3
 72
1
 73
1
 93
12
 10
2049.385918
 20
1217.469307
 42
0.0
 10
1999.385918
 20
1217.469307
 42
0.0
 10
1999.385918
 20
1717.469307
 42
0.0
 10
1899.385918
 20
1717.469307
 42
0.0
 10
1899.385918
 20
1729.469307
 42
0.0
 10
2037.1432773128806
 20
1729.469307
 42
-1.0000000000000535
 10
2041.385918
 20
1725.2266663128808
 42
0.0
 10
2041.385918
 20
1721.7119476871194
 42
-1.0000000000000535
 10
2037.1432773128806
 20
1717.469307
 42
0.0
 10
2004.385918
 20
1717.469307
 42
0.0
 10
2004.385918
 20
1229.469307
 42
0.0
 10
2049.385918
 20
1229.469307
 42
0.0
 97
0
 75
0
 76
1
 98
0
  0
LWPOLYLINE
  5
61
330
17
100
AcDbEntity
  8
POCKET_DEPTH6
 62
7
100
AcDbPolyline
 90
5
 70
1
 10
2037.1432773128806
 20
2405.469307
 10
1899.385918
 20
2405.469307
 10
1899.385918
 20
2417.469307
 10
2041.385918
 20
2417.469307
 10
2041.385918
 20
2409.711947687119
 42
-1.0000000000000266
  0
HATCH
  5
62
330
17
100
AcDbEntity
  8
VIS_FILL_DO_NOT_MACHINE
 62
7
100
AcDbHatch
 10
0.0
 20
0.0
 30
0.0
210
0.0
220
0.0
230
1.0
  2
SOLID
 70
1
 71
0
 91
1
 92
3
 72
1
 73
1
 93
5
 10
2037.1432773128806
 20
2405.469307
 42
0.0
 10
1899.385918
 20
2405.469307
 42
0.0
 10
1899.385918
 20
2417.469307
 42
0.0
 10
2041.385918
 20
2417.469307
 42
0.0
 10
2041.385918
 20
2409.711947687119
 42
-1.0000000000000266
 97
0
 75
0
 76
1
 98
0
  0
LWPOLYLINE
  5
63
330
17
100
AcDbEntity
  8
CUT_12MM
 62
7
100
AcDbPolyline
 90
4
 70
1
 10
1925.177715
 20
313.006835
 10
1925.177715
 20
73.006835
 10
1985.177715
 20
73.006835
 10
1985.177715
 20
313.006835
  0
LWPOLYLINE
  5
64
330
17
100
AcDbEntity
  8
CUT_12MM
 62
7
100
AcDbPolyline
 90
4
 70
1
 10
1925.177715
 20
567.006835
 10
1925.177715
 20
319.006835
 10
1985.177715
 20
319.006835
 10
1985.177715
 20
567.006835
  0
LWPOLYLINE
  5
65
330
17
100
AcDbEntity
  8
CUT_12MM
 62
7
100
AcDbPolyline
 90
4
 70
1
 10
2080.893126
 20
901.321576
 10
1968.893126
 20
901.321576
 10
1968.893126
 20
597.321576
 10
2080.893126
 20
597.321576
  0
LWPOLYLINE
  5
66
330
17
100
AcDbEntity
  8
CUT_12MM
 62
7
100
AcDbPolyline
 90
4
 70
1
 10
2080.893126
 20
907.321576
 10
2080.893126
 20
1211.321576
 10
1968.893126
 20
1211.321576
 10
1968.893126
 20
907.321576
  0
LWPOLYLINE
  5
67
330
17
100
AcDbEntity
  8
CUT_12MM
 62
7
100
AcDbPolyline
 90
4
 70
1
 10
1991.177715
 20
313.006835
 10
1991.177715
 20
73.006835
 10
2051.177715
 20
73.006835
 10
2051.177715
 20
313.006835
  0
LWPOLYLINE
  5
68
330
17
100
AcDbEntity
  8
CUT_12MM
 62
7
100
AcDbPolyline
 90
4
 70
1
 10
1991.177715
 20
567.006835
 10
1991.177715
 20
319.006835
 10
2051.177715
 20
319.006835
 10
2051.177715
 20
567.006835
  0
LWPOLYLINE
  5
69
330
17
100
AcDbEntity
  8
CUT_12MM
 62
7
100
AcDbPolyline
 90
10
 70
1
 10
2055.385918
 20
1729.469307
 10
2101.143277312881
 20
1729.469307
 42
-1.0000000000000266
 10
2105.385918
 20
1725.2266663128808
 10
2105.385918
 20
1717.469307
 10
2150.385918
 20
1717.469307
 10
2150.385918
 20
2417.469307
 10
2105.385918
 20
2417.469307
 10
2105.385918
 20
2409.711947687119
 42
-0.9999999999999999
 10
2101.143277312881
 20
2405.469307
 10
2055.385918
 20
2405.469307
  0
LWPOLYLINE
  5
6A
330
17
100
AcDbEntity
  8
POCKET_DEPTH6
 62
7
100
AcDbPolyline
 90
4
 70
1
 10
2077.385918
 20
2405.469307
 10
2077.385918
 20
1729.469307
 10
2071.385918
 20
1729.469307
 10
2071.385918
 20
2405.469307
  0
HATCH
  5
6B
330
17
100
AcDbEntity
  8
VIS_FILL_DO_NOT_MACHINE
 62
7
100
AcDbHatch
 10
0.0
 20
0.0
 30
0.0
210
0.0
220
0.0
230
1.0
  2
SOLID
 70
1
 71
0
 91
1
 92
3
 72
0
 73
1
 93
4
 10
2077.385918
 20
2405.469307
 10
2077.385918
 20
1729.469307
 10
2071.385918
 20
1729.469307
 10
2071.385918
 20
2405.469307
 97
0
 75
0
 76
1
 98
0
  0
LWPOLYLINE
  5
6C
330
17
100
AcDbEntity
  8
POCKET_DEPTH6
 62
7
100
AcDbPolyline
 90
4
 70
1
 10
2091.385918
 20
2405.469307
 10
2091.385918
 20
1729.469307
 10
2085.385918
 20
1729.469307
 10
2085.385918
 20
2405.469307
  0
HATCH
  5
6D
330
17
100
AcDbEntity
  8
VIS_FILL_DO_NOT_MACHINE
 62
7
100
AcDbHatch
 10
0.0
 20
0.0
 30
0.0
210
0.0
220
0.0
230
1.0
  2
SOLID
 70
1
 71
0
 91
1
 92
3
 72
0
 73
1
 93
4
 10
2091.385918
 20
2405.469307
 10
2091.385918
 20
1729.469307
 10
2085.385918
 20
1729.469307
 10
2085.385918
 20
2405.469307
 97
0
 75
0
 76
1
 98
0
  0
LWPOLYLINE
  5
6E
330
17
100
AcDbEntity
  8
CUT_12MM
 62
7
100
AcDbPolyline
 90
70
 70
1
 10
2774.893126
 20
311.469307
 10
2774.893126
 20
328.22666631288064
 42
-1.0000000000000064
 10
2779.135766687119
 20
332.469307
 10
2786.893126
 20
332.469307
 10
2786.893126
 20
382.469307
 10
2779.135766687119
 20
382.469307
 42
-1.0000000000000064
 10
2774.893126
 20
386.7119476871194
 10
2774.893126
 20
428.22666631288064
 42
-1.0000000000000064
 10
2779.135766687119
 20
432.469307
 10
2786.893126
 20
432.469307
 10
2786.893126
 20
482.469307
 10
2779.135766687119
 20
482.469307
 42
-1.0000000000000064
 10
2774.893126
 20
486.7119476871194
 10
2774.893126
 20
528.2266663128805
 42
-1.000000000000013
 10
2779.135766687119
 20
532.469307
 10
2786.893126
 20
532.469307
 10
2786.893126
 20
582.469307
 10
2779.135766687119
 20
582.469307
 42
-1.000000000000013
 10
2774.893126
 20
586.7119476871194
 10
2774.893126
 20
628.2266663128805
 42
-1.000000000000013
 10
2779.135766687119
 20
632.469307
 10
2786.893126
 20
632.469307
 10
2786.893126
 20
682.469307
 10
2779.135766687119
 20
682.469307
 42
-1.000000000000013
 10
2774.893126
 20
686.7119476871194
 10
2774.893126
 20
728.2266663128805
 42
-1.000000000000013
 10
2779.135766687119
 20
732.469307
 10
2786.893126
 20
732.469307
 10
2786.893126
 20
782.469307
 10
2779.135766687119
 20
782.469307
 42
-1.000000000000013
 10
2774.893126
 20
786.7119476871194
 10
2774.893126
 20
828.2266663128805
 42
-1.000000000000013
 10
2779.135766687119
 20
832.469307
 10
2786.893126
 20
832.469307
 10
2786.893126
 20
882.469307
 10
2779.135766687119
 20
882.469307
 42
-1.000000000000013
 10
2774.893126
 20
886.7119476871194
 10
2774.893126
 20
928.2266663128805
 42
-1.000000000000013
 10
2779.135766687119
 20
932.469307
 10
2786.893126
 20
932.469307
 10
2786.893126
 20
982.469307
 10
2779.135766687119
 20
982.469307
 42
-1.000000000000013
 10
2774.893126
 20
986.7119476871194
 10
2774.893126
 20
1011.469307
 10
2098.893126
 20
1011.469307
 10
2098.893126
 20
986.7119476871194
 42
-1.0000000000000133
 10
2094.650485312881
 20
982.469307
 10
2086.893126
 20
982.469307
 10
2086.893126
 20
932.469307
 10
2094.650485312881
 20
932.469307
 42
-1.0000000000000133
 10
2098.893126
 20
928.2266663128805
 10
2098.893126
 20
586.7119476871194
 42
-1.0000000000000133
 10
2094.650485312881
 20
582.469307
 10
2086.893126
 20
582.469307
 10
2086.893126
 20
532.469307
 10
2094.650485312881
 20
532.469307
 42
-1.0000000000000133
 10
2098.893126
 20
528.2266663128805
 10
2098.893126
 20
486.7119476871194
 42
-1.0000000000000064
 10
2094.650485312881
 20
482.469307
 10
2086.893126
 20
482.469307
 10
2086.893126
 20
432.469307
 10
2094.650485312881
 20
432.469307
 42
-1.0000000000000064
 10
2098.893126
 20
428.22666631288064
 10
2098.893126
 20
386.7119476871194
 42
-1.0000000000000064
 10
2094.650485312881
 20
382.469307
 10
2086.893126
 20
382.469307
 10
2086.893126
 20
332.469307
 10
2094.650485312881
 20
332.469307
 42
-1.0000000000000064
 10
2098.893126
 20
328.22666631288064
 10
2098.893126
 20
311.469307
  0
LWPOLYLINE
  5
6F
330
17
100
AcDbEntity
  8
POCKET_DEPTH6
 62
7
100
AcDbPolyline
 90
4
 70
1
 10
2774.893126
 20
319.469307
 10
2098.893126
 20
319.469307
 10
2098.893126
 20
325.469307
 10
2774.893126
 20
325.469307
  0
HATCH
  5
70
330
17
100
AcDbEntity
  8
VIS_FILL_DO_NOT_MACHINE
 62
7
100
AcDbHatch
 10
0.0
 20
0.0
 30
0.0
210
0.0
220
0.0
230
1.0
  2
SOLID
 70
1
 71
0
 91
1
 92
3
 72
0
 73
1
 93
4
 10
2774.893126
 20
319.469307
 10
2098.893126
 20
319.469307
 10
2098.893126
 20
325.469307
 10
2774.893126
 20
325.469307
 97
0
 75
0
 76
1
 98
0
  0
LWPOLYLINE
  5
71
330
17
100
AcDbEntity
  8
POCKET_DEPTH6
 62
7
100
AcDbPolyline
 90
4
 70
1
 10
2098.893126
 20
339.469307
 10
2774.893126
 20
339.469307
 42
-0.9999999999999999
 10
2774.893126
 20
333.469307
 10
2098.893126
 20
333.469307
 42
-0.9999999999999999
  0
HATCH
  5
72
330
17
100
AcDbEntity
  8
VIS_FILL_DO_NOT_MACHINE
 62
7
100
AcDbHatch
 10
0.0
 20
0.0
 30
0.0
210
0.0
220
0.0
230
1.0
  2
SOLID
 70
1
 71
0
 91
1
 92
3
 72
1
 73
1
 93
4
 10
2098.893126
 20
339.469307
 42
0.0
 10
2774.893126
 20
339.469307
 42
-0.9999999999999999
 10
2774.893126
 20
333.469307
 42
0.0
 10
2098.893126
 20
333.469307
 42
-0.9999999999999999
 97
0
 75
0
 76
1
 98
0
  0
LWPOLYLINE
  5
73
330
17
100
AcDbEntity
  8
CUT_12MM
 62
7
100
AcDbPolyline
 90
10
 70
1
 10
2486.893126
 20
308.469307
 10
2786.893126
 20
308.469307
 10
2786.893126
 20
178.469307
 10
2116.893126
 20
178.469307
 10
2116.893126
 20
308.469307
 10
2416.893126
 20
308.469307
 10
2416.893126
 20
291.469307
 42
0.4142135623730951
 10
2419.893126
 20
288.469307
 10
2483.893126
 20
288.469307
 42
0.4142135623730951
 10
2486.893126
 20
291.469307
  0
LWPOLYLINE
  5
74
330
17
100
AcDbEntity
  8
POCKET_DEPTH6
 62
7
100
AcDbPolyline
 90
20
 70
1
 10
2129.135766687119
 20
186.469307
 10
2132.650485312881
 20
186.469307
 42
1.0000000000000133
 10
2136.893126
 20
190.71194768711936
 10
2136.893126
 20
193.469307
 10
2766.893126
 20
193.469307
 10
2766.893126
 20
190.71194768711936
 42
1.000000000000013
 10
2771.135766687119
 20
186.469307
 10
2774.650485312881
 20
186.469307
 42
1.0000000000000133
 10
2778.893126
 20
190.71194768711936
 10
2778.893126
 20
282.22666631288064
 42
1.0000000000000064
 10
2774.650485312881
 20
286.469307
 10
2771.135766687119
 20
286.469307
 42
1.0000000000000064
 10
2766.893126
 20
282.22666631288064
 10
2766.893126
 20
198.469307
 10
2136.893126
 20
198.469307
 10
2136.893126
 20
282.22666631288064
 42
1.0000000000000064
 10
2132.650485312881
 20
286.469307
 10
2129.135766687119
 20
286.469307
 42
1.0000000000000064
 10
2124.893126
 20
282.22666631288064
 10
2124.893126
 20
190.71194768711936
 42
1.000000000000013
  0
HATCH
  5
75
330
17
100
AcDbEntity
  8
VIS_FILL_DO_NOT_MACHINE
 62
7
100
AcDbHatch
 10
0.0
 20
0.0
 30
0.0
210
0.0
220
0.0
230
1.0
  2
SOLID
 70
1
 71
0
 91
1
 92
3
 72
1
 73
1
 93
20
 10
2129.135766687119
 20
186.469307
 42
0.0
 10
2132.650485312881
 20
186.469307
 42
1.0000000000000133
 10
2136.893126
 20
190.71194768711936
 42
0.0
 10
2136.893126
 20
193.469307
 42
0.0
 10
2766.893126
 20
193.469307
 42
0.0
 10
2766.893126
 20
190.71194768711936
 42
1.000000000000013
 10
2771.135766687119
 20
186.469307
 42
0.0
 10
2774.650485312881
 20
186.469307
 42
1.0000000000000133
 10
2778.893126
 20
190.71194768711936
 42
0.0
 10
2778.893126
 20
282.22666631288064
 42
1.0000000000000064
 10
2774.650485312881
 20
286.469307
 42
0.0
 10
2771.135766687119
 20
286.469307
 42
1.0000000000000064
 10
2766.893126
 20
282.22666631288064
 42
0.0
 10
2766.893126
 20
198.469307
 42
0.0
 10
2136.893126
 20
198.469307
 42
0.0
 10
2136.893126
 20
282.22666631288064
 42
1.0000000000000064
 10
2132.650485312881
 20
286.469307
 42
0.0
 10
2129.135766687119
 20
286.469307
 42
1.0000000000000064
 10
2124.893126
 20
282.22666631288064
 42
0.0
 10
2124.893126
 20
190.71194768711936
 42
1.000000000000013
 97
0
 75
0
 76
1
 98
0
  0
LWPOLYLINE
  5
76
330
17
100
AcDbEntity
  8
CUT_12MM
 62
7
100
AcDbPolyline
 90
10
 70
1
 10
2207.385918
 20
2417.469307
 10
2207.385918
 20
2409.711947687119
 42
-0.9999999999999999
 10
2203.143277312881
 20
2405.469307
 10
2157.385918
 20
2405.469307
 10
2157.385918
 20
1729.469307
 10
2203.143277312881
 20
1729.469307
 42
-1.0000000000000266
 10
2207.385918
 20
1725.2266663128808
 10
2207.385918
 20
1717.469307
 10
2252.385918
 20
1717.469307
 10
2252.385918
 20
2417.469307
  0
LWPOLYLINE
  5
77
330
17
100
AcDbEntity
  8
CUT_12MM
 62
7
100
AcDbPolyline
 90
4
 70
1
 10
2220.893126
 20
60.469307
 10
2500.893126
 20
60.469307
 10
2500.893126
 20
172.469307
 10
2220.893126
 20
172.469307
  0
LWPOLYLINE
  5
78
330
17
100
AcDbEntity
  8
CUT_12MM
 62
7
100
AcDbPolyline
 90
10
 70
1
 10
2259.385918
 20
1729.469307
 10
2305.143277312881
 20
1729.469307
 42
-1.0000000000000266
 10
2309.385918
 20
1725.2266663128808
 10
2309.385918
 20
1717.469307
 10
2354.385918
 20
1717.469307
 10
2354.385918
 20
2417.469307
 10
2309.385918
 20
2417.469307
 10
2309.385918
 20
2409.711947687119
 42
-0.9999999999999999
 10
2305.143277312881
 20
2405.469307
 10
2259.385918
 20
2405.469307
  0
LWPOLYLINE
  5
79
330
17
100
AcDbEntity
  8
POCKET_DEPTH6
 62
7
100
AcDbPolyline
 90
4
 70
1
 10
2259.385918
 20
2073.469307
 10
2259.385918
 20
2061.469307
 10
2354.385918
 20
2061.469307
 10
2354.385918
 20
2073.469307
  0
HATCH
  5
7A
330
17
100
AcDbEntity
  8
VIS_FILL_DO_NOT_MACHINE
 62
7
100
AcDbHatch
 10
0.0
 20
0.0
 30
0.0
210
0.0
220
0.0
230
1.0
  2
SOLID
 70
1
 71
0
 91
1
 92
3
 72
0
 73
1
 93
4
 10
2259.385918
 20
2073.469307
 10
2259.385918
 20
2061.469307
 10
2354.385918
 20
2061.469307
 10
2354.385918
 20
2073.469307
 97
0
 75
0
 76
1
 98
0
  0
LWPOLYLINE
  5
7B
330
17
100
AcDbEntity
  8
CUT_12MM
 62
7
100
AcDbPolyline
 90
16
 70
1
 10
2411.385918
 20
2417.469307
 10
2411.385918
 20
2409.711947687119
 42
-0.9999999999999999
 10
2407.143277312881
 20
2405.469307
 10
2361.385918
 20
2405.469307
 10
2361.385918
 20
2073.469307
 10
2407.143277312881
 20
2073.469307
 42
-0.9999999999999999
 10
2411.385918
 20
2069.2266663128808
 10
2411.385918
 20
2065.711947687119
 42
-0.9999999999999999
 10
2407.143277312881
 20
2061.469307
 10
2361.385918
 20
2061.469307
 10
2361.385918
 20
1729.469307
 10
2407.143277312881
 20
1729.469307
 42
-1.0000000000000266
 10
2411.385918
 20
1725.2266663128808
 10
2411.385918
 20
1717.469307
 10
2456.385918
 20
1717.469307
 10
2456.385918
 20
2417.469307
  0
LWPOLYLINE
  5
7C
330
17
100
AcDbEntity
  8
CUT_12MM
 62
7
100
AcDbPolyline
 90
10
 70
1
 10
2558.385918
 20
2014.469307
 10
2513.628558687119
 20
2014.469307
 42
-1.0000000000000266
 10
2509.385918
 20
2018.7119476871194
 10
2509.385918
 20
2022.2266663128808
 42
-1.0000000000000266
 10
2513.628558687119
 20
2026.469307
 10
2558.385918
 20
2026.469307
 10
2558.385918
 20
2417.469307
 10
2463.385918
 20
2417.469307
 10
2463.385918
 20
1623.469307
 10
2558.385918
 20
1623.469307
  0
LWPOLYLINE
  5
7D
330
17
100
AcDbEntity
  8
CUT_12MM
 62
7
100
AcDbPolyline
 90
4
 70
1
 10
2506.893126
 20
60.469307
 10
2786.893126
 20
60.469307
 10
2786.893126
 20
172.469307
 10
2506.893126
 20
172.469307
  0
LWPOLYLINE
  5
7E
330
17
100
AcDbEntity
  8
CUT_12MM
 62
7
100
AcDbPolyline
 90
4
 70
1
 10
2715.385918
 20
2417.469307
 10
2565.385918
 20
2417.469307
 10
2565.385918
 20
1717.469307
 10
2715.385918
 20
1717.469307
  0
LWPOLYLINE
  5
7F
330
17
100
AcDbEntity
  8
POCKET_DEPTH6
 62
7
100
AcDbPolyline
 90
5
 70
1
 10
2565.385918
 20
1729.469307
 10
2703.143277312881
 20
1729.469307
 42
-1.0000000000000266
 10
2707.385918
 20
1725.2266663128808
 10
2707.385918
 20
1717.469307
 10
2565.385918
 20
1717.469307
  0
HATCH
  5
80
330
17
100
AcDbEntity
  8
VIS_FILL_DO_NOT_MACHINE
 62
7
100
AcDbHatch
 10
0.0
 20
0.0
 30
0.0
210
0.0
220
0.0
230
1.0
  2
SOLID
 70
1
 71
0
 91
1
 92
3
 72
1
 73
1
 93
5
 10
2565.385918
 20
1729.469307
 42
0.0
 10
2703.143277312881
 20
1729.469307
 42
-1.0000000000000266
 10
2707.385918
 20
1725.2266663128808
 42
0.0
 10
2707.385918
 20
1717.469307
 42
0.0
 10
2565.385918
 20
1717.469307
 42
0.0
 97
0
 75
0
 76
1
 98
0
  0
LWPOLYLINE
  5
81
330
17
100
AcDbEntity
  8
POCKET_DEPTH6
 62
7
100
AcDbPolyline
 90
5
 70
1
 10
2703.143277312881
 20
2405.469307
 10
2565.385918
 20
2405.469307
 10
2565.385918
 20
2417.469307
 10
2707.385918
 20
2417.469307
 10
2707.385918
 20
2409.711947687119
 42
-0.9999999999999999
  0
HATCH
  5
82
330
17
100
AcDbEntity
  8
VIS_FILL_DO_NOT_MACHINE
 62
7
100
AcDbHatch
 10
0.0
 20
0.0
 30
0.0
210
0.0
220
0.0
230
1.0
  2
SOLID
 70
1
 71
0
 91
1
 92
3
 72
1
 73
1
 93
5
 10
2703.143277312881
 20
2405.469307
 42
0.0
 10
2565.385918
 20
2405.469307
 42
0.0
 10
2565.385918
 20
2417.469307
 42
0.0
 10
2707.385918
 20
2417.469307
 42
0.0
 10
2707.385918
 20
2409.711947687119
 42
-0.9999999999999999
 97
0
 75
0
 76
1
 98
0
  0
LWPOLYLINE
  5
83
330
17
100
AcDbEntity
  8
CUT_12MM
 62
7
100
AcDbPolyline
 90
4
 70
1
 10
3034.893126
 20
263.469307
 10
3354.893126
 20
263.469307
 10
3354.893126
 20
753.469307
 10
3034.893126
 20
753.469307
  0
LWPOLYLINE
  5
84
330
17
100
AcDbEntity
  8
POCKET_DEPTH6
 62
7
100
AcDbPolyline
 90
12
 70
1
 10
3200.893126
 20
263.469307
 10
3188.893126
 20
263.469307
 10
3188.893126
 20
287.469307
 10
3034.893126
 20
287.469307
 10
3034.893126
 20
299.469307
 10
3337.893126
 20
299.469307
 10
3337.893126
 20
499.469307
 42
-0.9999999999999999
 10
3342.893126
 20
499.469307
 10
3342.893126
 20
299.469307
 10
3354.893126
 20
299.469307
 10
3354.893126
 20
287.469307
 10
3200.893126
 20
287.469307
  0
HATCH
  5
85
330
17
100
AcDbEntity
  8
VIS_FILL_DO_NOT_MACHINE
 62
7
100
AcDbHatch
 10
0.0
 20
0.0
 30
0.0
210
0.0
220
0.0
230
1.0
  2
SOLID
 70
1
 71
0
 91
1
 92
3
 72
1
 73
1
 93
12
 10
3200.893126
 20
263.469307
 42
0.0
 10
3188.893126
 20
263.469307
 42
0.0
 10
3188.893126
 20
287.469307
 42
0.0
 10
3034.893126
 20
287.469307
 42
0.0
 10
3034.893126
 20
299.469307
 42
0.0
 10
3337.893126
 20
299.469307
 42
0.0
 10
3337.893126
 20
499.469307
 42
-0.9999999999999999
 10
3342.893126
 20
499.469307
 42
0.0
 10
3342.893126
 20
299.469307
 42
0.0
 10
3354.893126
 20
299.469307
 42
0.0
 10
3354.893126
 20
287.469307
 42
0.0
 10
3200.893126
 20
287.469307
 42
0.0
 97
0
 75
0
 76
1
 98
0
  0
LWPOLYLINE
  5
86
330
17
100
AcDbEntity
  8
POCKET_DEPTH6
 62
7
100
AcDbPolyline
 90
10
 70
1
 10
3188.893126
 20
697.7119476871194
 10
3188.893126
 20
741.469307
 10
3034.893126
 20
741.469307
 10
3034.893126
 20
753.469307
 10
3354.893126
 20
753.469307
 10
3354.893126
 20
741.469307
 10
3200.893126
 20
741.469307
 10
3200.893126
 20
697.7119476871194
 42
-1.0000000000000133
 10
3196.650485312881
 20
693.469307
 10
3193.135766687119
 20
693.469307
 42
-1.000000000000013
  0
HATCH
  5
87
330
17
100
AcDbEntity
  8
VIS_FILL_DO_NOT_MACHINE
 62
7
100
AcDbHatch
 10
0.0
 20
0.0
 30
0.0
210
0.0
220
0.0
230
1.0
  2
SOLID
 70
1
 71
0
 91
1
 92
3
 72
1
 73
1
 93
10
 10
3188.893126
 20
697.7119476871194
 42
0.0
 10
3188.893126
 20
741.469307
 42
0.0
 10
3034.893126
 20
741.469307
 42
0.0
 10
3034.893126
 20
753.469307
 42
0.0
 10
3354.893126
 20
753.469307
 42
0.0
 10
3354.893126
 20
741.469307
 42
0.0
 10
3200.893126
 20
741.469307
 42
0.0
 10
3200.893126
 20
697.7119476871194
 42
-1.0000000000000133
 10
3196.650485312881
 20
693.469307
 42
0.0
 10
3193.135766687119
 20
693.469307
 42
-1.000000000000013
 97
0
 75
0
 76
1
 98
0
  0
LWPOLYLINE
  5
88
330
17
100
AcDbEntity
  8
CUT_12MM
 62
7
100
AcDbPolyline
 90
4
 70
1
 10
3034.893126
 20
759.469307
 10
3354.893126
 20
759.469307
 10
3354.893126
 20
1249.469307
 10
3034.893126
 20
1249.469307
  0
LWPOLYLINE
  5
89
330
17
100
AcDbEntity
  8
POCKET_DEPTH6
 62
7
100
AcDbPolyline
 90
12
 70
1
 10
3200.893126
 20
759.469307
 10
3188.893126
 20
759.469307
 10
3188.893126
 20
783.469307
 10
3034.893126
 20
783.469307
 10
3034.893126
 20
795.469307
 10
3337.893126
 20
795.469307
 10
3337.893126
 20
995.469307
 42
-0.9999999999999999
 10
3342.893126
 20
995.469307
 10
3342.893126
 20
795.469307
 10
3354.893126
 20
795.469307
 10
3354.893126
 20
783.469307
 10
3200.893126
 20
783.469307
  0
HATCH
  5
8A
330
17
100
AcDbEntity
  8
VIS_FILL_DO_NOT_MACHINE
 62
7
100
AcDbHatch
 10
0.0
 20
0.0
 30
0.0
210
0.0
220
0.0
230
1.0
  2
SOLID
 70
1
 71
0
 91
1
 92
3
 72
1
 73
1
 93
12
 10
3200.893126
 20
759.469307
 42
0.0
 10
3188.893126
 20
759.469307
 42
0.0
 10
3188.893126
 20
783.469307
 42
0.0
 10
3034.893126
 20
783.469307
 42
0.0
 10
3034.893126
 20
795.469307
 42
0.0
 10
3337.893126
 20
795.469307
 42
0.0
 10
3337.893126
 20
995.469307
 42
-0.9999999999999999
 10
3342.893126
 20
995.469307
 42
0.0
 10
3342.893126
 20
795.469307
 42
0.0
 10
3354.893126
 20
795.469307
 42
0.0
 10
3354.893126
 20
783.469307
 42
0.0
 10
3200.893126
 20
783.469307
 42
0.0
 97
0
 75
0
 76
1
 98
0
  0
LWPOLYLINE
  5
8B
330
17
100
AcDbEntity
  8
POCKET_DEPTH6
 62
7
100
AcDbPolyline
 90
10
 70
1
 10
3188.893126
 20
1193.7119476871194
 10
3188.893126
 20
1237.469307
 10
3034.893126
 20
1237.469307
 10
3034.893126
 20
1249.469307
 10
3354.893126
 20
1249.469307
 10
3354.893126
 20
1237.469307
 10
3200.893126
 20
1237.469307
 10
3200.893126
 20
1193.7119476871194
 42
-1.0000000000000266
 10
3196.650485312881
 20
1189.469307
 10
3193.135766687119
 20
1189.469307
 42
-1.0000000000000266
  0
HATCH
  5
8C
330
17
100
AcDbEntity
  8
VIS_FILL_DO_NOT_MACHINE
 62
7
100
AcDbHatch
 10
0.0
 20
0.0
 30
0.0
210
0.0
220
0.0
230
1.0
  2
SOLID
 70
1
 71
0
 91
1
 92
3
 72
1
 73
1
 93
10
 10
3188.893126
 20
1193.7119476871194
 42
0.0
 10
3188.893126
 20
1237.469307
 42
0.0
 10
3034.893126
 20
1237.469307
 42
0.0
 10
3034.893126
 20
1249.469307
 42
0.0
 10
3354.893126
 20
1249.469307
 42
0.0
 10
3354.893126
 20
1237.469307
 42
0.0
 10
3200.893126
 20
1237.469307
 42
0.0
 10
3200.893126
 20
1193.7119476871194
 42
-1.0000000000000266
 10
3196.650485312881
 20
1189.469307
 42
0.0
 10
3193.135766687119
 20
1189.469307
 42
-1.0000000000000266
 97
0
 75
0
 76
1
 98
0
  0
LWPOLYLINE
  5
8D
330
17
100
AcDbEntity
  8
CUT_12MM
 62
7
100
AcDbPolyline
 90
53
 70
1
 10
4166.893126
 20
-10.530693
 10
3110.893126
 20
-10.530693
 10
3110.893126
 20
131.469307
 10
3360.893126
 20
131.469307
 10
3360.893126
 20
122.71194768711939
 42
1.0000000000000115
 10
3365.135766687119
 20
118.469307
 10
3368.650485312881
 20
118.469307
 42
1.0000000000000115
 10
3372.893126
 20
122.71194768711939
 10
3372.893126
 20
164.2266663128806
 42
1.0000000000000133
 10
3368.650485312881
 20
168.469307
 10
3360.893126
 20
168.469307
 10
3360.893126
 20
218.469307
 10
3368.650485312881
 20
218.469307
 42
1.0000000000000133
 10
3372.893126
 20
222.71194768711936
 10
3372.893126
 20
264.22666631288064
 42
1.0000000000000064
 10
3368.650485312881
 20
268.469307
 10
3360.893126
 20
268.469307
 10
3360.893126
 20
318.469307
 10
3368.650485312881
 20
318.469307
 42
1.0000000000000064
 10
3372.893126
 20
322.7119476871194
 10
3372.893126
 20
364.22666631288064
 42
1.0000000000000064
 10
3368.650485312881
 20
368.469307
 10
3360.893126
 20
368.469307
 10
3360.893126
 20
418.469307
 10
3368.650485312881
 20
418.469307
 42
1.0000000000000064
 10
3372.893126
 20
422.7119476871194
 10
3372.893126
 20
464.22666631288064
 42
1.0000000000000064
 10
3368.650485312881
 20
468.469307
 10
3360.893126
 20
468.469307
 10
3360.893126
 20
518.469307
 10
3368.650485312881
 20
518.469307
 42
1.0000000000000133
 10
3372.893126
 20
522.7119476871194
 10
3372.893126
 20
564.2266663128805
 42
1.0000000000000133
 10
3368.650485312881
 20
568.469307
 10
3360.893126
 20
568.469307
 10
3360.893126
 20
618.469307
 10
3368.650485312881
 20
618.469307
 42
1.0000000000000133
 10
3372.893126
 20
622.7119476871194
 10
3372.893126
 20
664.2266663128805
 42
1.0000000000000133
 10
3368.650485312881
 20
668.469307
 10
3360.893126
 20
668.469307
 10
3360.893126
 20
689.469307
 10
4166.893126
 20
689.469307
 10
4166.893126
 20
684.469307
 42
0.4142135623730951
 10
4169.893126
 20
681.469307
 10
4206.893126
 20
681.469307
 10
4206.893126
 20
101.46930699999996
 42
0.4142135623730951
 10
4203.893126
 20
98.469307
 10
4203.893126
 20
92.469307
 42
0.4142135623730951
 10
4206.893126
 20
89.469307
 10
4206.893126
 20
-2.530693
 10
4169.893125957853
 20
-2.530693
 42
0.41421355825824857
 10
4166.893126
 20
-5.530692999999999
  0
LWPOLYLINE
  5
8E
330
17
100
AcDbEntity
  8
HOLE_THROUGH_12MM
 62
150
100
AcDbPolyline
 90
8
 70
1
 10
4154.893126
 20
22.711947687118926
 10
4154.893126
 20
64.22666631288106
 42
-0.9999999999999583
 10
4159.13576668712
 20
68.469307
 10
4162.65048531288
 20
68.469307
 42
-0.9999999999999583
 10
4166.893126
 20
64.22666631288106
 10
4166.893126
 20
22.71194768711893
 42
-0.9999999999999583
 10
4162.65048531288
 20
18.469307
 10
4159.13576668712
 20
18.469307
 42
-0.9999999999999578
  0
HATCH
  5
8F
330
17
100
AcDbEntity
  8
VIS_FILL_DO_NOT_MACHINE
 62
150
100
AcDbHatch
 10
0.0
 20
0.0
 30
0.0
210
0.0
220
0.0
230
1.0
  2
SOLID
 70
1
 71
0
 91
1
 92
3
 72
1
 73
1
 93
8
 10
4154.893126
 20
22.711947687118926
 42
0.0
 10
4154.893126
 20
64.22666631288106
 42
-0.9999999999999583
 10
4159.13576668712
 20
68.469307
 42
0.0
 10
4162.65048531288
 20
68.469307
 42
-0.9999999999999583
 10
4166.893126
 20
64.22666631288106
 42
0.0
 10
4166.893126
 20
22.71194768711893
 42
-0.9999999999999583
 10
4162.65048531288
 20
18.469307
 42
0.0
 10
4159.13576668712
 20
18.469307
 42
-0.9999999999999578
 97
0
 75
0
 76
1
 98
0
  0
LWPOLYLINE
  5
90
330
17
100
AcDbEntity
  8
HOLE_THROUGH_12MM
 62
150
100
AcDbPolyline
 90
8
 70
1
 10
3360.893126
 20
43.711947687119384
 10
3360.893126
 20
80.22666631288061
 42
-1.0000000000000115
 10
3365.135766687119
 20
84.469307
 10
3368.650485312881
 20
84.469307
 42
-1.0000000000000115
 10
3372.893126
 20
80.22666631288061
 10
3372.893126
 20
43.711947687119384
 42
-1.0000000000000107
 10
3368.650485312881
 20
39.469307
 10
3365.135766687119
 20
39.469307
 42
-1.0000000000000107
  0
HATCH
  5
91
330
17
100
AcDbEntity
  8
VIS_FILL_DO_NOT_MACHINE
 62
150
100
AcDbHatch
 10
0.0
 20
0.0
 30
0.0
210
0.0
220
0.0
230
1.0
  2
SOLID
 70
1
 71
0
 91
1
 92
3
 72
1
 73
1
 93
8
 10
3360.893126
 20
43.711947687119384
 42
0.0
 10
3360.893126
 20
80.22666631288061
 42
-1.0000000000000115
 10
3365.135766687119
 20
84.469307
 42
0.0
 10
3368.650485312881
 20
84.469307
 42
-1.0000000000000115
 10
3372.893126
 20
80.22666631288061
 42
0.0
 10
3372.893126
 20
43.711947687119384
 42
-1.0000000000000107
 10
3368.650485312881
 20
39.469307
 42
0.0
 10
3365.135766687119
 20
39.469307
 42
-1.0000000000000107
 97
0
 75
0
 76
1
 98
0
  0
LWPOLYLINE
  5
92
330
17
100
AcDbEntity
  8
HOLE_THROUGH_12MM
 62
150
100
AcDbPolyline
 90
8
 70
1
 10
4154.893126
 20
122.71194768711894
 10
4154.893126
 20
164.22666631288106
 42
-0.9999999999999597
 10
4159.13576668712
 20
168.469307
 10
4162.65048531288
 20
168.469307
 42
-0.9999999999999597
 10
4166.893126
 20
164.22666631288106
 10
4166.893126
 20
122.71194768711894
 42
-0.9999999999999583
 10
4162.65048531288
 20
118.469307
 10
4159.13576668712
 20
118.469307
 42
-0.9999999999999583
  0
HATCH
  5
93
330
17
100
AcDbEntity
  8
VIS_FILL_DO_NOT_MACHINE
 62
150
100
AcDbHatch
 10
0.0
 20
0.0
 30
0.0
210
0.0
220
0.0
230
1.0
  2
SOLID
 70
1
 71
0
 91
1
 92
3
 72
1
 73
1
 93
8
 10
4154.893126
 20
122.71194768711894
 42
0.0
 10
4154.893126
 20
164.22666631288106
 42
-0.9999999999999597
 10
4159.13576668712
 20
168.469307
 42
0.0
 10
4162.65048531288
 20
168.469307
 42
-0.9999999999999597
 10
4166.893126
 20
164.22666631288106
 42
0.0
 10
4166.893126
 20
122.71194768711894
 42
-0.9999999999999583
 10
4162.65048531288
 20
118.469307
 42
0.0
 10
4159.13576668712
 20
118.469307
 42
-0.9999999999999583
 97
0
 75
0
 76
1
 98
0
  0
LWPOLYLINE
  5
94
330
17
100
AcDbEntity
  8
HOLE_THROUGH_12MM
 62
150
100
AcDbPolyline
 90
8
 70
1
 10
4154.893126
 20
222.7119476871189
 10
4154.893126
 20
264.2266663128811
 42
-0.999999999999953
 10
4159.13576668712
 20
268.469307
 10
4162.65048531288
 20
268.469307
 42
-0.999999999999953
 10
4166.893126
 20
264.2266663128811
 10
4166.893126
 20
222.7119476871189
 42
-0.9999999999999597
 10
4162.65048531288
 20
218.469307
 10
4159.13576668712
 20
218.469307
 42
-0.9999999999999597
  0
HATCH
  5
95
330
17
100
AcDbEntity
  8
VIS_FILL_DO_NOT_MACHINE
 62
150
100
AcDbHatch
 10
0.0
 20
0.0
 30
0.0
210
0.0
220
0.0
230
1.0
  2
SOLID
 70
1
 71
0
 91
1
 92
3
 72
1
 73
1
 93
8
 10
4154.893126
 20
222.7119476871189
 42
0.0
 10
4154.893126
 20
264.2266663128811
 42
-0.999999999999953
 10
4159.13576668712
 20
268.469307
 42
0.0
 10
4162.65048531288
 20
268.469307
 42
-0.999999999999953
 10
4166.893126
 20
264.2266663128811
 42
0.0
 10
4166.893126
 20
222.7119476871189
 42
-0.9999999999999597
 10
4162.65048531288
 20
218.469307
 42
0.0
 10
4159.13576668712
 20
218.469307
 42
-0.9999999999999597
 97
0
 75
0
 76
1
 98
0
  0
LWPOLYLINE
  5
96
330
17
100
AcDbEntity
  8
HOLE_THROUGH_12MM
 62
150
100
AcDbPolyline
 90
8
 70
1
 10
4090.893126
 20
296.469307
 10
4090.893126
 20
590.469307
 42
-0.4142135623730951
 10
4093.893126
 20
593.469307
 10
4173.893126
 20
593.469307
 42
-0.4142135623730951
 10
4176.893126
 20
590.469307
 10
4176.893126
 20
296.469307
 42
-0.4142135623730951
 10
4173.893126
 20
293.469307
 10
4093.893126
 20
293.469307
 42
-0.4142135623730951
  0
HATCH
  5
97
330
17
100
AcDbEntity
  8
VIS_FILL_DO_NOT_MACHINE
 62
150
100
AcDbHatch
 10
0.0
 20
0.0
 30
0.0
210
0.0
220
0.0
230
1.0
  2
SOLID
 70
1
 71
0
 91
1
 92
3
 72
1
 73
1
 93
8
 10
4090.893126
 20
296.469307
 42
0.0
 10
4090.893126
 20
590.469307
 42
-0.4142135623730951
 10
4093.893126
 20
593.469307
 42
0.0
 10
4173.893126
 20
593.469307
 42
-0.4142135623730951
 10
4176.893126
 20
590.469307
 42
0.0
 10
4176.893126
 20
296.469307
 42
-0.4142135623730951
 10
4173.893126
 20
293.469307
 42
0.0
 10
4093.893126
 20
293.469307
 42
-0.4142135623730951
 97
0
 75
0
 76
1
 98
0
  0
LWPOLYLINE
  5
98
330
17
100
AcDbEntity
  8
HOLE_THROUGH_12MM
 62
150
100
AcDbPolyline
 90
8
 70
1
 10
4154.893126
 20
622.7119476871189
 10
4154.893126
 20
664.226666312881
 42
-0.9999999999999597
 10
4159.13576668712
 20
668.469307
 10
4162.65048531288
 20
668.469307
 42
-0.9999999999999597
 10
4166.893126
 20
664.226666312881
 10
4166.893126
 20
622.7119476871189
 42
-0.9999999999999597
 10
4162.65048531288
 20
618.469307
 10
4159.13576668712
 20
618.469307
 42
-0.9999999999999597
  0
HATCH
  5
99
330
17
100
AcDbEntity
  8
VIS_FILL_DO_NOT_MACHINE
 62
150
100
AcDbHatch
 10
0.0
 20
0.0
 30
0.0
210
0.0
220
0.0
230
1.0
  2
SOLID
 70
1
 71
0
 91
1
 92
3
 72
1
 73
1
 93
8
 10
4154.893126
 20
622.7119476871189
 42
0.0
 10
4154.893126
 20
664.226666312881
 42
-0.9999999999999597
 10
4159.13576668712
 20
668.469307
 42
0.0
 10
4162.65048531288
 20
668.469307
 42
-0.9999999999999597
 10
4166.893126
 20
664.226666312881
 42
0.0
 10
4166.893126
 20
622.7119476871189
 42
-0.9999999999999597
 10
4162.65048531288
 20
618.469307
 42
0.0
 10
4159.13576668712
 20
618.469307
 42
-0.9999999999999597
 97
0
 75
0
 76
1
 98
0
  0
LWPOLYLINE
  5
9A
330
17
100
AcDbEntity
  8
POCKET_DEPTH6
 62
7
100
AcDbPolyline
 90
4
 70
1
 10
4154.893126
 20
89.469307
 10
3110.893126
 20
89.469307
 10
3110.893126
 20
84.469307
 10
4154.893126
 20
84.469307
 42
0.9999999999999999
  0
HATCH
  5
9B
330
17
100
AcDbEntity
  8
VIS_FILL_DO_NOT_MACHINE
 62
7
100
AcDbHatch
 10
0.0
 20
0.0
 30
0.0
210
0.0
220
0.0
230
1.0
  2
SOLID
 70
1
 71
0
 91
1
 92
3
 72
1
 73
1
 93
4
 10
4154.893126
 20
89.469307
 42
0.0
 10
3110.893126
 20
89.469307
 42
0.0
 10
3110.893126
 20
84.469307
 42
0.0
 10
4154.893126
 20
84.469307
 42
0.9999999999999999
 97
0
 75
0
 76
1
 98
0
  0
LWPOLYLINE
  5
9C
330
17
100
AcDbEntity
  8
CUT_12MM
 62
7
100
AcDbPolyline
 90
53
 70
1
 10
4166.893126
 20
697.469307
 10
3360.893126
 20
697.469307
 10
3360.893126
 20
718.469307
 10
3368.650485312881
 20
718.469307
 42
1.0000000000000133
 10
3372.893126
 20
722.7119476871194
 10
3372.893126
 20
764.2266663128805
 42
1.0000000000000133
 10
3368.650485312881
 20
768.469307
 10
3360.893126
 20
768.469307
 10
3360.893126
 20
818.469307
 10
3368.650485312881
 20
818.469307
 42
1.0000000000000133
 10
3372.893126
 20
822.7119476871194
 10
3372.893126
 20
864.2266663128805
 42
1.0000000000000133
 10
3368.650485312881
 20
868.469307
 10
3360.893126
 20
868.469307
 10
3360.893126
 20
918.469307
 10
3368.650485312881
 20
918.469307
 42
1.0000000000000133
 10
3372.893126
 20
922.7119476871194
 10
3372.893126
 20
964.2266663128805
 42
1.0000000000000133
 10
3368.650485312881
 20
968.469307
 10
3360.893126
 20
968.469307
 10
3360.893126
 20
1018.469307
 10
3368.650485312881
 20
1018.469307
 42
1.0000000000000133
 10
3372.893126
 20
1022.7119476871194
 10
3372.893126
 20
1064.2266663128808
 42
1.0000000000000266
 10
3368.650485312881
 20
1068.469307
 10
3360.893126
 20
1068.469307
 10
3360.893126
 20
1118.469307
 10
3368.650485312881
 20
1118.469307
 42
1.0000000000000266
 10
3372.893126
 20
1122.7119476871194
 10
3372.893126
 20
1164.2266663128808
 42
1.0000000000000266
 10
3368.650485312881
 20
1168.469307
 10
3360.893126
 20
1168.469307
 10
3360.893126
 20
1218.469307
 10
3368.650485312881
 20
1218.469307
 42
1.0000000000000266
 10
3372.893126
 20
1222.7119476871194
 10
3372.893126
 20
1264.2266663128808
 42
1.0000000000000266
 10
3368.650485312881
 20
1268.469307
 10
3365.135766687119
 20
1268.469307
 42
1.0000000000000266
 10
3360.893126
 20
1264.2266663128808
 10
3360.893126
 20
1255.469307
 10
3110.893126
 20
1255.469307
 10
3110.893126
 20
1397.469307
 10
4166.893126
 20
1397.469307
 10
4166.893126
 20
1392.469307
 42
0.4142135623730951
 10
4169.893126
 20
1389.469307
 10
4206.893126
 20
1389.469307
 10
4206.893126
 20
1297.469307
 42
0.4142135623730951
 10
4203.893126
 20
1294.469307
 10
4203.893126
 20
1288.469307
 42
0.4142135623730951
 10
4206.893126
 20
1285.469307
 10
4206.893126
 20
705.469307
 10
4169.893126
 20
705.469307
 42
0.4142135623730951
 10
4166.893126
 20
702.469307
  0
LWPOLYLINE
  5
9D
330
17
100
AcDbEntity
  8
HOLE_THROUGH_12MM
 62
150
100
AcDbPolyline
 90
8
 70
1
 10
4154.893126
 20
722.7119476871189
 10
4154.893126
 20
764.226666312881
 42
-0.9999999999999597
 10
4159.13576668712
 20
768.469307
 10
4162.65048531288
 20
768.469307
 42
-0.9999999999999597
 10
4166.893126
 20
764.226666312881
 10
4166.893126
 20
722.7119476871189
 42
-0.9999999999999597
 10
4162.65048531288
 20
718.469307
 10
4159.13576668712
 20
718.469307
 42
-0.9999999999999597
  0
HATCH
  5
9E
330
17
100
AcDbEntity
  8
VIS_FILL_DO_NOT_MACHINE
 62
150
100
AcDbHatch
 10
0.0
 20
0.0
 30
0.0
210
0.0
220
0.0
230
1.0
  2
SOLID
 70
1
 71
0
 91
1
 92
3
 72
1
 73
1
 93
8
 10
4154.893126
 20
722.7119476871189
 42
0.0
 10
4154.893126
 20
764.226666312881
 42
-0.9999999999999597
 10
4159.13576668712
 20
768.469307
 42
0.0
 10
4162.65048531288
 20
768.469307
 42
-0.9999999999999597
 10
4166.893126
 20
764.226666312881
 42
0.0
 10
4166.893126
 20
722.7119476871189
 42
-0.9999999999999597
 10
4162.65048531288
 20
718.469307
 42
0.0
 10
4159.13576668712
 20
718.469307
 42
-0.9999999999999597
 97
0
 75
0
 76
1
 98
0
  0
LWPOLYLINE
  5
9F
330
17
100
AcDbEntity
  8
HOLE_THROUGH_12MM
 62
150
100
AcDbPolyline
 90
8
 70
1
 10
4154.893126
 20
822.7119476871189
 10
4154.893126
 20
864.226666312881
 42
-0.9999999999999597
 10
4159.13576668712
 20
868.469307
 10
4162.65048531288
 20
868.469307
 42
-0.9999999999999597
 10
4166.893126
 20
864.226666312881
 10
4166.893126
 20
822.7119476871189
 42
-0.9999999999999597
 10
4162.65048531288
 20
818.469307
 10
4159.13576668712
 20
818.469307
 42
-0.9999999999999597
  0
HATCH
  5
A0
330
17
100
AcDbEntity
  8
VIS_FILL_DO_NOT_MACHINE
 62
150
100
AcDbHatch
 10
0.0
 20
0.0
 30
0.0
210
0.0
220
0.0
230
1.0
  2
SOLID
 70
1
 71
0
 91
1
 92
3
 72
1
 73
1
 93
8
 10
4154.893126
 20
822.7119476871189
 42
0.0
 10
4154.893126
 20
864.226666312881
 42
-0.9999999999999597
 10
4159.13576668712
 20
868.469307
 42
0.0
 10
4162.65048531288
 20
868.469307
 42
-0.9999999999999597
 10
4166.893126
 20
864.226666312881
 42
0.0
 10
4166.893126
 20
822.7119476871189
 42
-0.9999999999999597
 10
4162.65048531288
 20
818.469307
 42
0.0
 10
4159.13576668712
 20
818.469307
 42
-0.9999999999999597
 97
0
 75
0
 76
1
 98
0
  0
LWPOLYLINE
  5
A1
330
17
100
AcDbEntity
  8
HOLE_THROUGH_12MM
 62
150
100
AcDbPolyline
 90
8
 70
1
 10
4154.893126
 20
922.7119476871189
 10
4154.893126
 20
964.226666312881
 42
-0.9999999999999597
 10
4159.13576668712
 20
968.469307
 10
4162.65048531288
 20
968.469307
 42
-0.9999999999999597
 10
4166.893126
 20
964.226666312881
 10
4166.893126
 20
922.7119476871189
 42
-0.9999999999999597
 10
4162.65048531288
 20
918.469307
 10
4159.13576668712
 20
918.469307
 42
-0.9999999999999597
  0
HATCH
  5
A2
330
17
100
AcDbEntity
  8
VIS_FILL_DO_NOT_MACHINE
 62
150
100
AcDbHatch
 10
0.0
 20
0.0
 30
0.0
210
0.0
220
0.0
230
1.0
  2
SOLID
 70
1
 71
0
 91
1
 92
3
 72
1
 73
1
 93
8
 10
4154.893126
 20
922.7119476871189
 42
0.0
 10
4154.893126
 20
964.226666312881
 42
-0.9999999999999597
 10
4159.13576668712
 20
968.469307
 42
0.0
 10
4162.65048531288
 20
968.469307
 42
-0.9999999999999597
 10
4166.893126
 20
964.226666312881
 42
0.0
 10
4166.893126
 20
922.7119476871189
 42
-0.9999999999999597
 10
4162.65048531288
 20
918.469307
 42
0.0
 10
4159.13576668712
 20
918.469307
 42
-0.9999999999999597
 97
0
 75
0
 76
1
 98
0
  0
LWPOLYLINE
  5
A3
330
17
100
AcDbEntity
  8
HOLE_THROUGH_12MM
 62
150
100
AcDbPolyline
 90
8
 70
1
 10
4154.893126
 20
1022.7119476871189
 10
4154.893126
 20
1064.2266663128812
 42
-0.9999999999999731
 10
4159.13576668712
 20
1068.469307
 10
4162.65048531288
 20
1068.469307
 42
-0.9999999999999734
 10
4166.893126
 20
1064.2266663128812
 10
4166.893126
 20
1022.7119476871189
 42
-0.9999999999999597
 10
4162.65048531288
 20
1018.469307
 10
4159.13576668712
 20
1018.469307
 42
-0.9999999999999597
  0
HATCH
  5
A4
330
17
100
AcDbEntity
  8
VIS_FILL_DO_NOT_MACHINE
 62
150
100
AcDbHatch
 10
0.0
 20
0.0
 30
0.0
210
0.0
220
0.0
230
1.0
  2
SOLID
 70
1
 71
0
 91
1
 92
3
 72
1
 73
1
 93
8
 10
4154.893126
 20
1022.7119476871189
 42
0.0
 10
4154.893126
 20
1064.2266663128812
 42
-0.9999999999999731
 10
4159.13576668712
 20
1068.469307
 42
0.0
 10
4162.65048531288
 20
1068.469307
 42
-0.9999999999999734
 10
4166.893126
 20
1064.2266663128812
 42
0.0
 10
4166.893126
 20
1022.7119476871189
 42
-0.9999999999999597
 10
4162.65048531288
 20
1018.469307
 42
0.0
 10
4159.13576668712
 20
1018.469307
 42
-0.9999999999999597
 97
0
 75
0
 76
1
 98
0
  0
LWPOLYLINE
  5
A5
330
17
100
AcDbEntity
  8
HOLE_THROUGH_12MM
 62
150
100
AcDbPolyline
 90
8
 70
1
 10
4154.893126
 20
1122.711947687119
 10
4154.893126
 20
1164.2266663128812
 42
-0.9999999999999731
 10
4159.13576668712
 20
1168.469307
 10
4162.65048531288
 20
1168.469307
 42
-0.9999999999999734
 10
4166.893126
 20
1164.2266663128812
 10
4166.893126
 20
1122.711947687119
 42
-0.9999999999999734
 10
4162.65048531288
 20
1118.469307
 10
4159.13576668712
 20
1118.469307
 42
-0.9999999999999731
  0
HATCH
  5
A6
330
17
100
AcDbEntity
  8
VIS_FILL_DO_NOT_MACHINE
 62
150
100
AcDbHatch
 10
0.0
 20
0.0
 30
0.0
210
0.0
220
0.0
230
1.0
  2
SOLID
 70
1
 71
0
 91
1
 92
3
 72
1
 73
1
 93
8
 10
4154.893126
 20
1122.711947687119
 42
0.0
 10
4154.893126
 20
1164.2266663128812
 42
-0.9999999999999731
 10
4159.13576668712
 20
1168.469307
 42
0.0
 10
4162.65048531288
 20
1168.469307
 42
-0.9999999999999734
 10
4166.893126
 20
1164.2266663128812
 42
0.0
 10
4166.893126
 20
1122.711947687119
 42
-0.9999999999999734
 10
4162.65048531288
 20
1118.469307
 42
0.0
 10
4159.13576668712
 20
1118.469307
 42
-0.9999999999999731
 97
0
 75
0
 76
1
 98
0
  0
LWPOLYLINE
  5
A7
330
17
100
AcDbEntity
  8
HOLE_THROUGH_12MM
 62
150
100
AcDbPolyline
 90
8
 70
1
 10
4154.893126
 20
1222.711947687119
 10
4154.893126
 20
1264.2266663128812
 42
-0.9999999999999731
 10
4159.13576668712
 20
1268.469307
 10
4162.65048531288
 20
1268.469307
 42
-0.9999999999999734
 10
4166.893126
 20
1264.2266663128812
 10
4166.893126
 20
1222.711947687119
 42
-0.9999999999999734
 10
4162.65048531288
 20
1218.469307
 10
4159.13576668712
 20
1218.469307
 42
-0.9999999999999731
  0
HATCH
  5
A8
330
17
100
AcDbEntity
  8
VIS_FILL_DO_NOT_MACHINE
 62
150
100
AcDbHatch
 10
0.0
 20
0.0
 30
0.0
210
0.0
220
0.0
230
1.0
  2
SOLID
 70
1
 71
0
 91
1
 92
3
 72
1
 73
1
 93
8
 10
4154.893126
 20
1222.711947687119
 42
0.0
 10
4154.893126
 20
1264.2266663128812
 42
-0.9999999999999731
 10
4159.13576668712
 20
1268.469307
 42
0.0
 10
4162.65048531288
 20
1268.469307
 42
-0.9999999999999734
 10
4166.893126
 20
1264.2266663128812
 42
0.0
 10
4166.893126
 20
1222.711947687119
 42
-0.9999999999999734
 10
4162.65048531288
 20
1218.469307
 42
0.0
 10
4159.13576668712
 20
1218.469307
 42
-0.9999999999999731
 97
0
 75
0
 76
1
 98
0
  0
LWPOLYLINE
  5
A9
330
17
100
AcDbEntity
  8
HOLE_THROUGH_12MM
 62
150
100
AcDbPolyline
 90
8
 70
1
 10
3360.893126
 20
1306.7119476871192
 10
3360.893126
 20
1343.2266663128808
 42
-1.0000000000000266
 10
3365.135766687119
 20
1347.469307
 10
3368.650485312881
 20
1347.469307
 42
-1.0000000000000266
 10
3372.893126
 20
1343.2266663128808
 10
3372.893126
 20
1306.7119476871192
 42
-1.0000000000000266
 10
3368.650485312881
 20
1302.4693069999998
 10
3365.135766687119
 20
1302.4693069999998
 42
-1.0000000000000266
  0
HATCH
  5
AA
330
17
100
AcDbEntity
  8
VIS_FILL_DO_NOT_MACHINE
 62
150
100
AcDbHatch
 10
0.0
 20
0.0
 30
0.0
210
0.0
220
0.0
230
1.0
  2
SOLID
 70
1
 71
0
 91
1
 92
3
 72
1
 73
1
 93
8
 10
3360.893126
 20
1306.7119476871192
 42
0.0
 10
3360.893126
 20
1343.2266663128808
 42
-1.0000000000000266
 10
3365.135766687119
 20
1347.469307
 42
0.0
 10
3368.650485312881
 20
1347.469307
 42
-1.0000000000000266
 10
3372.893126
 20
1343.2266663128808
 42
0.0
 10
3372.893126
 20
1306.7119476871192
 42
-1.0000000000000266
 10
3368.650485312881
 20
1302.4693069999998
 42
0.0
 10
3365.135766687119
 20
1302.4693069999998
 42
-1.0000000000000266
 97
0
 75
0
 76
1
 98
0
  0
LWPOLYLINE
  5
AB
330
17
100
AcDbEntity
  8
HOLE_THROUGH_12MM
 62
150
100
AcDbPolyline
 90
8
 70
1
 10
4154.893126
 20
1322.711947687119
 10
4154.893126
 20
1364.2266663128812
 42
-0.9999999999999731
 10
4159.13576668712
 20
1368.469307
 10
4162.65048531288
 20
1368.469307
 42
-0.9999999999999734
 10
4166.893126
 20
1364.2266663128812
 10
4166.893126
 20
1322.711947687119
 42
-0.9999999999999734
 10
4162.65048531288
 20
1318.469307
 10
4159.13576668712
 20
1318.469307
 42
-0.9999999999999731
  0
HATCH
  5
AC
330
17
100
AcDbEntity
  8
VIS_FILL_DO_NOT_MACHINE
 62
150
100
AcDbHatch
 10
0.0
 20
0.0
 30
0.0
210
0.0
220
0.0
230
1.0
  2
SOLID
 70
1
 71
0
 91
1
 92
3
 72
1
 73
1
 93
8
 10
4154.893126
 20
1322.711947687119
 42
0.0
 10
4154.893126
 20
1364.2266663128812
 42
-0.9999999999999731
 10
4159.13576668712
 20
1368.469307
 42
0.0
 10
4162.65048531288
 20
1368.469307
 42
-0.9999999999999734
 10
4166.893126
 20
1364.2266663128812
 42
0.0
 10
4166.893126
 20
1322.711947687119
 42
-0.9999999999999734
 10
4162.65048531288
 20
1318.469307
 42
0.0
 10
4159.13576668712
 20
1318.469307
 42
-0.9999999999999731
 97
0
 75
0
 76
1
 98
0
  0
LWPOLYLINE
  5
AD
330
17
100
AcDbEntity
  8
POCKET_DEPTH6
 62
7
100
AcDbPolyline
 90
4
 70
1
 10
4154.893126
 20
1302.4693069999998
 10
3110.893126
 20
1302.4693069999998
 10
3110.893126
 20
1297.4693069999998
 10
4154.893126
 20
1297.4693069999998
 42
0.9999999999999999
  0
HATCH
  5
AE
330
17
100
AcDbEntity
  8
VIS_FILL_DO_NOT_MACHINE
 62
7
100
AcDbHatch
 10
0.0
 20
0.0
 30
0.0
210
0.0
220
0.0
230
1.0
  2
SOLID
 70
1
 71
0
 91
1
 92
3
 72
1
 73
1
 93
4
 10
4154.893126
 20
1302.4693069999998
 42
0.0
 10
3110.893126
 20
1302.4693069999998
 42
0.0
 10
3110.893126
 20
1297.4693069999998
 42
0.0
 10
4154.893126
 20
1297.4693069999998
 42
0.9999999999999999
 97
0
 75
0
 76
1
 98
0
  0
LWPOLYLINE
  5
AF
330
17
100
AcDbEntity
  8
CUT_12MM
 62
7
100
AcDbPolyline
 90
4
 70
1
 10
3114.28886
 20
1663.075522
 10
3114.28886
 20
1423.075522
 10
3354.28886
 20
1423.075522
 10
3354.28886
 20
1663.075522
  0
LWPOLYLINE
  5
B0
330
17
100
AcDbEntity
  8
CUT_12MM
 62
7
100
AcDbPolyline
 90
4
 70
1
 10
3668.893126
 20
1995.469307
 10
3136.893126
 20
1995.469307
 10
3136.893126
 20
1675.469307
 10
3668.893126
 20
1675.469307
  0
LWPOLYLINE
  5
B1
330
17
100
AcDbEntity
  8
POCKET_DEPTH6
 62
7
100
AcDbPolyline
 90
4
 70
1
 10
3396.893126
 20
1995.469307
 10
3405.92099
 20
1995.469307
 10
3408.893126
 20
1675.469307
 10
3396.893126
 20
1675.469307
  0
HATCH
  5
B2
330
17
100
AcDbEntity
  8
VIS_FILL_DO_NOT_MACHINE
 62
7
100
AcDbHatch
 10
0.0
 20
0.0
 30
0.0
210
0.0
220
0.0
230
1.0
  2
SOLID
 70
1
 71
0
 91
1
 92
3
 72
0
 73
1
 93
4
 10
3396.893126
 20
1995.469307
 10
3405.92099
 20
1995.469307
 10
3408.893126
 20
1675.469307
 10
3396.893126
 20
1675.469307
 97
0
 75
0
 76
1
 98
0
  0
LWPOLYLINE
  5
B3
330
17
100
AcDbEntity
  8
CUT_12MM
 62
7
100
AcDbPolyline
 90
4
 70
1
 10
3136.893126
 20
2321.469307
 10
3136.893126
 20
2001.469307
 10
3668.893126
 20
2001.469307
 10
3668.893126
 20
2321.469307
  0
LWPOLYLINE
  5
B4
330
17
100
AcDbEntity
  8
POCKET_DEPTH6
 62
7
100
AcDbPolyline
 90
4
 70
1
 10
3396.893126
 20
2321.469307
 10
3402.893126
 20
2321.469307
 10
3405.865262
 20
2001.469307
 10
3396.893126
 20
2001.469307
  0
HATCH
  5
B5
330
17
100
AcDbEntity
  8
VIS_FILL_DO_NOT_MACHINE
 62
7
100
AcDbHatch
 10
0.0
 20
0.0
 30
0.0
210
0.0
220
0.0
230
1.0
  2
SOLID
 70
1
 71
0
 91
1
 92
3
 72
0
 73
1
 93
4
 10
3396.893126
 20
2321.469307
 10
3402.893126
 20
2321.469307
 10
3405.865262
 20
2001.469307
 10
3396.893126
 20
2001.469307
 97
0
 75
0
 76
1
 98
0
  0
LWPOLYLINE
  5
B6
330
17
100
AcDbEntity
  8
CUT_12MM
 62
7
100
AcDbPolyline
 90
4
 70
1
 10
3136.893126
 20
2381.469307
 10
3136.893126
 20
2327.469307
 10
3668.893126
 20
2327.469307
 10
3668.893126
 20
2381.469307
  0
LWPOLYLINE
  5
B7
330
17
100
AcDbEntity
  8
CUT_12MM
 62
7
100
AcDbPolyline
 90
4
 70
1
 10
3136.893126
 20
2417.469307
 10
3136.893126
 20
2387.469307
 10
3668.893126
 20
2387.469307
 10
3668.893126
 20
2417.469307
  0
LWPOLYLINE
  5
B8
330
17
100
AcDbEntity
  8
CUT_12MM
 62
7
100
AcDbPolyline
 90
4
 70
1
 10
3760.28886
 20
1523.075522
 10
3360.28886
 20
1523.075522
 10
3360.28886
 20
1423.075522
 10
3760.28886
 20
1423.075522
  0
LWPOLYLINE
  5
B9
330
17
100
AcDbEntity
  8
POCKET_DEPTH6
 62
7
100
AcDbPolyline
 90
4
 70
1
 10
3760.28886
 20
1435.075522
 10
3360.28886
 20
1435.075522
 10
3360.28886
 20
1430.075522
 10
3760.28886
 20
1430.075522
  0
HATCH
  5
BA
330
17
100
AcDbEntity
  8
VIS_FILL_DO_NOT_MACHINE
 62
7
100
AcDbHatch
 10
0.0
 20
0.0
 30
0.0
210
0.0
220
0.0
230
1.0
  2
SOLID
 70
1
 71
0
 91
1
 92
3
 72
0
 73
1
 93
4
 10
3760.28886
 20
1435.075522
 10
3360.28886
 20
1435.075522
 10
3360.28886
 20
1430.075522
 10
3760.28886
 20
1430.075522
 97
0
 75
0
 76
1
 98
0
  0
LWPOLYLINE
  5
BB
330
17
100
AcDbEntity
  8
CUT_12MM
 62
7
100
AcDbPolyline
 90
4
 70
1
 10
3512.28886
 20
1529.075522
 10
4166.28886
 20
1529.075522
 10
4166.28886
 20
1629.075522
 10
3512.28886
 20
1629.075522
  0
LWPOLYLINE
  5
BC
330
17
100
AcDbEntity
  8
CUT_12MM
 62
7
100
AcDbPolyline
 90
4
 70
1
 10
3674.893126
 20
1995.469307
 10
3674.893126
 20
1675.469307
 10
4206.893126
 20
1675.469307
 10
4206.893126
 20
1995.469307
  0
LWPOLYLINE
  5
BD
330
17
100
AcDbEntity
  8
POCKET_DEPTH6
 62
7
100
AcDbPolyline
 90
4
 70
1
 10
3934.893126
 20
1995.469307
 10
3943.92099
 20
1995.469307
 10
3946.893126
 20
1675.469307
 10
3934.893126
 20
1675.469307
  0
HATCH
  5
BE
330
17
100
AcDbEntity
  8
VIS_FILL_DO_NOT_MACHINE
 62
7
100
AcDbHatch
 10
0.0
 20
0.0
 30
0.0
210
0.0
220
0.0
230
1.0
  2
SOLID
 70
1
 71
0
 91
1
 92
3
 72
0
 73
1
 93
4
 10
3934.893126
 20
1995.469307
 10
3943.92099
 20
1995.469307
 10
3946.893126
 20
1675.469307
 10
3934.893126
 20
1675.469307
 97
0
 75
0
 76
1
 98
0
  0
LWPOLYLINE
  5
BF
330
17
100
AcDbEntity
  8
CUT_12MM
 62
7
100
AcDbPolyline
 90
4
 70
1
 10
3674.893126
 20
2321.469307
 10
3674.893126
 20
2001.469307
 10
4206.893126
 20
2001.469307
 10
4206.893126
 20
2321.469307
  0
LWPOLYLINE
  5
C0
330
17
100
AcDbEntity
  8
POCKET_DEPTH6
 62
7
100
AcDbPolyline
 90
4
 70
1
 10
3934.893126
 20
2321.469307
 10
3940.893126
 20
2321.469307
 10
3943.865262
 20
2001.469307
 10
3934.893126
 20
2001.469307
  0
HATCH
  5
C1
330
17
100
AcDbEntity
  8
VIS_FILL_DO_NOT_MACHINE
 62
7
100
AcDbHatch
 10
0.0
 20
0.0
 30
0.0
210
0.0
220
0.0
230
1.0
  2
SOLID
 70
1
 71
0
 91
1
 92
3
 72
0
 73
1
 93
4
 10
3934.893126
 20
2321.469307
 10
3940.893126
 20
2321.469307
 10
3943.865262
 20
2001.469307
 10
3934.893126
 20
2001.469307
 97
0
 75
0
 76
1
 98
0
  0
LWPOLYLINE
  5
C2
330
17
100
AcDbEntity
  8
CUT_12MM
 62
7
100
AcDbPolyline
 90
4
 70
1
 10
4206.893126
 20
2381.469307
 10
3674.893126
 20
2381.469307
 10
3674.893126
 20
2327.469307
 10
4206.893126
 20
2327.469307
  0
LWPOLYLINE
  5
C3
330
17
100
AcDbEntity
  8
CUT_12MM
 62
7
100
AcDbPolyline
 90
4
 70
1
 10
4206.893126
 20
2417.469307
 10
3674.893126
 20
2417.469307
 10
3674.893126
 20
2387.469307
 10
4206.893126
 20
2387.469307
  0
LWPOLYLINE
  5
C4
330
17
100
AcDbEntity
  8
CUT_12MM
 62
7
100
AcDbPolyline
 90
4
 70
1
 10
3766.28886
 20
1423.075522
 10
4166.28886
 20
1423.075522
 10
4166.28886
 20
1523.075522
 10
3766.28886
 20
1523.075522
  0
LWPOLYLINE
  5
C5
330
17
100
AcDbEntity
  8
POCKET_DEPTH6
 62
7
100
AcDbPolyline
 90
4
 70
1
 10
4166.28886
 20
1435.075522
 10
3766.28886
 20
1435.075522
 10
3766.28886
 20
1430.075522
 10
4166.28886
 20
1430.075522
  0
HATCH
  5
C6
330
17
100
AcDbEntity
  8
VIS_FILL_DO_NOT_MACHINE
 62
7
100
AcDbHatch
 10
0.0
 20
0.0
 30
0.0
210
0.0
220
0.0
230
1.0
  2
SOLID
 70
1
 71
0
 91
1
 92
3
 72
0
 73
1
 93
4
 10
4166.28886
 20
1435.075522
 10
3766.28886
 20
1435.075522
 10
3766.28886
 20
1430.075522
 10
4166.28886
 20
1430.075522
 97
0
 75
0
 76
1
 98
0
  0
LWPOLYLINE
  5
C7
330
17
100
AcDbEntity
  8
CUT_5MM
 62
6
100
AcDbPolyline
 90
4
 70
1
 10
4418.893126
 20
31.469307
 10
4950.893126
 20
31.469307
 10
4950.893126
 20
231.469307
 10
4418.893126
 20
231.469307
  0
LWPOLYLINE
  5
C8
330
17
100
AcDbEntity
  8
CUT_5MM
 62
6
100
AcDbPolyline
 90
4
 70
1
 10
4418.893126
 20
237.469307
 10
4766.893126
 20
237.469307
 10
4766.893126
 20
1029.469307
 10
4418.893126
 20
1029.469307
  0
LWPOLYLINE
  5
C9
330
17
100
AcDbEntity
  8
CUT_5MM
 62
6
100
AcDbPolyline
 90
4
 70
1
 10
5505.893126
 20
1729.469307
 10
5505.893126
 20
2417.469307
 10
4418.893126
 20
2417.469307
 10
4418.893126
 20
1729.469307
  0
LWPOLYLINE
  5
CA
330
17
100
AcDbEntity
  8
CUT_5MM
 62
6
100
AcDbPolyline
 90
4
 70
1
 10
5462.893126
 20
1723.469307
 10
4424.893126
 20
1723.469307
 10
4424.893126
 20
1035.469307
 10
5462.893126
 20
1035.469307
  0
LWPOLYLINE
  5
CB
330
17
100
AcDbEntity
  8
HOLE_THROUGH_5MM
 62
150
100
AcDbPolyline
 90
8
 70
1
 10
4707.893126
 20
1631.469307
 10
4683.893126
 20
1631.469307
 42
-0.4142135623730951
 10
4680.893126
 20
1634.469307
 10
4680.893126
 20
1678.469307
 42
-0.4142135623730951
 10
4683.893126
 20
1681.469307
 10
4707.893126
 20
1681.469307
 42
-0.4142135623730951
 10
4710.893126
 20
1678.469307
 10
4710.893126
 20
1634.469307
 42
-0.4142135623730951
  0
HATCH
  5
CC
330
17
100
AcDbEntity
  8
VIS_FILL_DO_NOT_MACHINE
 62
150
100
AcDbHatch
 10
0.0
 20
0.0
 30
0.0
210
0.0
220
0.0
230
1.0
  2
SOLID
 70
1
 71
0
 91
1
 92
3
 72
1
 73
1
 93
8
 10
4707.893126
 20
1631.469307
 42
0.0
 10
4683.893126
 20
1631.469307
 42
-0.4142135623730951
 10
4680.893126
 20
1634.469307
 42
0.0
 10
4680.893126
 20
1678.469307
 42
-0.4142135623730951
 10
4683.893126
 20
1681.469307
 42
0.0
 10
4707.893126
 20
1681.469307
 42
-0.4142135623730951
 10
4710.893126
 20
1678.469307
 42
0.0
 10
4710.893126
 20
1634.469307
 42
-0.4142135623730951
 97
0
 75
0
 76
1
 98
0
  0
LWPOLYLINE
  5
CD
330
17
100
AcDbEntity
  8
HOLE_THROUGH_5MM
 62
150
100
AcDbPolyline
 90
8
 70
1
 10
4665.893126
 20
1651.469307
 10
4663.893126
 20
1651.469307
 42
-0.4142135623730951
 10
4660.893126
 20
1654.469307
 10
4660.893126
 20
1678.469307
 42
-0.4142135623730951
 10
4663.893126
 20
1681.469307
 10
4665.893126
 20
1681.469307
 42
-0.4142135623730951
 10
4668.893126
 20
1678.469307
 10
4668.893126
 20
1654.469307
 42
-0.4142135623730951
  0
HATCH
  5
CE
330
17
100
AcDbEntity
  8
VIS_FILL_DO_NOT_MACHINE
 62
150
100
AcDbHatch
 10
0.0
 20
0.0
 30
0.0
210
0.0
220
0.0
230
1.0
  2
SOLID
 70
1
 71
0
 91
1
 92
3
 72
1
 73
1
 93
8
 10
4665.893126
 20
1651.469307
 42
0.0
 10
4663.893126
 20
1651.469307
 42
-0.4142135623730951
 10
4660.893126
 20
1654.469307
 42
0.0
 10
4660.893126
 20
1678.469307
 42
-0.4142135623730951
 10
4663.893126
 20
1681.469307
 42
0.0
 10
4665.893126
 20
1681.469307
 42
-0.4142135623730951
 10
4668.893126
 20
1678.469307
 42
0.0
 10
4668.893126
 20
1654.469307
 42
-0.4142135623730951
 97
0
 75
0
 76
1
 98
0
  0
LWPOLYLINE
  5
CF
330
17
100
AcDbEntity
  8
CUT_5MM
 62
6
100
AcDbPolyline
 90
4
 70
1
 10
4772.893126
 20
237.469307
 10
5120.893126
 20
237.469307
 10
5120.893126
 20
1029.469307
 10
4772.893126
 20
1029.469307
  0
LWPOLYLINE
  5
D0
330
17
100
AcDbEntity
  8
CUT_5MM
 62
6
100
AcDbPolyline
 90
4
 70
1
 10
4956.893126
 20
31.469307
 10
5488.893126
 20
31.469307
 10
5488.893126
 20
231.469307
 10
4956.893126
 20
231.469307
  0
LWPOLYLINE
  5
D1
330
17
100
AcDbEntity
  8
CUT_5MM
 62
6
100
AcDbPolyline
 90
4
 70
1
 10
5126.893126
 20
1029.469307
 10
5126.893126
 20
387.469307
 10
5526.893126
 20
387.469307
 10
5526.893126
 20
1029.469307
  0
LWPOLYLINE
  5
D2
330
17
100
AcDbEntity
  8
CUT_5MM
 62
6
100
AcDbPolyline
 90
4
 70
1
 10
5468.893126
 20
1037.469307
 10
5508.893126
 20
1037.469307
 10
5508.893126
 20
1217.469307
 10
5468.893126
 20
1217.469307
  0
LWPOLYLINE
  5
D3
330
17
100
AcDbEntity
  8
CUT_5MM
 62
6
100
AcDbPolyline
 90
4
 70
1
 10
5468.893126
 20
1711.469307
 10
5468.893126
 20
1223.469307
 10
5624.893126
 20
1223.469307
 10
5624.893126
 20
1711.469307
  0
LWPOLYLINE
  5
D4
330
17
100
AcDbEntity
  8
HOLE_THROUGH_5MM
 62
150
100
AcDbPolyline
 90
8
 70
1
 10
5507.893126
 20
1285.469307
 42
-0.4142135623730951
 10
5510.893126
 20
1282.469307
 10
5510.893126
 20
1238.469307
 42
-0.4142135623730951
 10
5507.893126
 20
1235.469307
 10
5483.893126
 20
1235.469307
 42
-0.4142135623730951
 10
5480.893126
 20
1238.469307
 10
5480.893126
 20
1282.469307
 42
-0.4142135623730951
 10
5483.893126
 20
1285.469307
  0
HATCH
  5
D5
330
17
100
AcDbEntity
  8
VIS_FILL_DO_NOT_MACHINE
 62
150
100
AcDbHatch
 10
0.0
 20
0.0
 30
0.0
210
0.0
220
0.0
230
1.0
  2
SOLID
 70
1
 71
0
 91
1
 92
3
 72
1
 73
1
 93
8
 10
5507.893126
 20
1285.469307
 42
-0.4142135623730951
 10
5510.893126
 20
1282.469307
 42
0.0
 10
5510.893126
 20
1238.469307
 42
-0.4142135623730951
 10
5507.893126
 20
1235.469307
 42
0.0
 10
5483.893126
 20
1235.469307
 42
-0.4142135623730951
 10
5480.893126
 20
1238.469307
 42
0.0
 10
5480.893126
 20
1282.469307
 42
-0.4142135623730951
 10
5483.893126
 20
1285.469307
 42
0.0
 97
0
 75
0
 76
1
 98
0
  0
LWPOLYLINE
  5
D6
330
17
100
AcDbEntity
  8
CUT_5MM
 62
6
100
AcDbPolyline
 90
4
 70
1
 10
5517.893126
 20
2417.469307
 10
5517.893126
 20
1717.469307
 10
5557.893126
 20
1717.469307
 10
5557.893126
 20
2417.469307
  0
LWPOLYLINE
  5
D7
330
17
100
AcDbEntity
  8
CUT_5MM
 62
6
100
AcDbPolyline
 90
4
 70
1
 10
5553.247723
 20
492.372864
 10
5593.247723
 20
492.372864
 10
5593.247723
 20
1192.372864
 10
5553.247723
 20
1192.372864
  0
LWPOLYLINE
  5
D8
330
17
100
AcDbEntity
  8
CUT_5MM
 62
6
100
AcDbPolyline
 90
4
 70
1
 10
5563.893126
 20
1717.469307
 10
5603.893126
 20
1717.469307
 10
5603.893126
 20
2417.469307
 10
5563.893126
 20
2417.469307
  0
LWPOLYLINE
  5
D9
330
17
100
AcDbEntity
  8
CUT_12MM
 62
7
100
AcDbPolyline
 90
80
 70
1
 10
2086.893126
 20
1446.469307
 10
2086.893126
 20
1496.469307
 10
2094.650485312881
 20
1496.469307
 42
1.0000000000000266
 10
2098.893126
 20
1500.7119476871194
 10
2098.893126
 20
1542.2266663128808
 42
1.0000000000000266
 10
2094.650485312881
 20
1546.469307
 10
2086.893126
 20
1546.469307
 10
2086.893126
 20
1596.469307
 10
2094.650485312881
 20
1596.469307
 42
1.0000000000000266
 10
2098.893126
 20
1600.7119476871194
 10
2098.893126
 20
1617.469307
 10
2774.893126
 20
1617.469307
 10
2774.893126
 20
1600.7119476871194
 42
1.0000000000000266
 10
2779.135766687119
 20
1596.469307
 10
2786.893126
 20
1596.469307
 10
2786.893126
 20
1546.469307
 10
2779.135766687119
 20
1546.469307
 42
1.0000000000000266
 10
2774.893126
 20
1542.2266663128808
 10
2774.893126
 20
1500.7119476871194
 42
1.0000000000000266
 10
2779.135766687119
 20
1496.469307
 10
2786.893126
 20
1496.469307
 10
2786.893126
 20
1446.469307
 10
2779.135766687119
 20
1446.469307
 42
1.0000000000000266
 10
2774.893126
 20
1442.2266663128808
 10
2774.893126
 20
1400.7119476871194
 42
1.0000000000000266
 10
2779.135766687119
 20
1396.469307
 10
2786.893126
 20
1396.469307
 10
2786.893126
 20
1346.469307
 10
2779.135766687119
 20
1346.469307
 42
1.0000000000000266
 10
2774.893126
 20
1342.2266663128808
 10
2774.893126
 20
1300.7119476871194
 42
1.0000000000000266
 10
2779.135766687119
 20
1296.469307
 10
2786.893126
 20
1296.469307
 10
2786.893126
 20
1246.469307
 10
2779.135766687119
 20
1246.469307
 42
1.0000000000000266
 10
2774.893126
 20
1242.2266663128808
 10
2774.893126
 20
1200.7119476871194
 42
1.0000000000000266
 10
2779.135766687119
 20
1196.469307
 10
2786.893126
 20
1196.469307
 10
2786.893126
 20
1146.469307
 10
2779.135766687119
 20
1146.469307
 42
1.0000000000000266
 10
2774.893126
 20
1142.2266663128808
 10
2774.893126
 20
1100.7119476871194
 42
1.0000000000000266
 10
2779.135766687119
 20
1096.469307
 10
2786.893126
 20
1096.469307
 10
2786.893126
 20
1046.469307
 10
2779.135766687119
 20
1046.469307
 42
1.0000000000000266
 10
2774.893126
 20
1042.2266663128808
 10
2774.893126
 20
1017.469307
 10
2228.893126
 20
1017.469307
 10
2228.893126
 20
1057.469307
 10
2128.893126
 20
1057.469307
 10
2128.893126
 20
1017.469307
 10
2098.893126
 20
1017.469307
 10
2098.893126
 20
1042.2266663128808
 42
1.0000000000000266
 10
2094.650485312881
 20
1046.469307
 10
2086.893126
 20
1046.469307
 10
2086.893126
 20
1096.469307
 10
2094.650485312881
 20
1096.469307
 42
1.0000000000000266
 10
2098.893126
 20
1100.7119476871194
 10
2098.893126
 20
1142.2266663128808
 42
1.0000000000000266
 10
2094.650485312881
 20
1146.469307
 10
2086.893126
 20
1146.469307
 10
2086.893126
 20
1196.469307
 10
2094.650485312881
 20
1196.469307
 42
1.0000000000000266
 10
2098.893126
 20
1200.7119476871194
 10
2098.893126
 20
1242.2266663128808
 42
1.0000000000000266
 10
2094.650485312881
 20
1246.469307
 10
2086.893126
 20
1246.469307
 10
2086.893126
 20
1296.469307
 10
2094.650485312881
 20
1296.469307
 42
1.0000000000000266
 10
2098.893126
 20
1300.7119476871194
 10
2098.893126
 20
1342.2266663128808
 42
1.0000000000000266
 10
2094.650485312881
 20
1346.469307
 10
2086.893126
 20
1346.469307
 10
2086.893126
 20
1396.469307
 10
2094.650485312881
 20
1396.469307
 42
1.0000000000000266
 10
2098.893126
 20
1400.7119476871194
 10
2098.893126
 20
1442.2266663128808
 42
1.0000000000000266
 10
2094.650485312881
 20
1446.469307
  0
LWPOLYLINE
  5
DA
330
17
100
AcDbEntity
  8
REF_STOCK_DO_NOT_CUT
 62
8
100
AcDbPolyline
 90
6
 70
1
 10
1572.893126
 20
2423.469307
 10
2792.893126
 20
2423.469307
 10
2792.893126
 20
-16.530693
 10
2184.893126
 20
-16.530693
 10
2178.893126
 20
-16.530693
 10
1572.893126
 20
-16.530693
  0
LWPOLYLINE
  5
DB
330
17
100
AcDbEntity
  8
REF_STOCK_DO_NOT_CUT
 62
8
100
AcDbPolyline
 90
6
 70
1
 10
2992.893126
 20
2423.469307
 10
4206.893126
 20
2423.469307
 10
4212.893126
 20
2423.469307
 10
4212.893126
 20
-16.530693
 10
4206.893126
 20
-16.530693
 10
2992.893126
 20
-16.530693
  0
LWPOLYLINE
  5
DC
330
17
100
AcDbEntity
  8
REF_STOCK_DO_NOT_CUT
 62
8
100
AcDbPolyline
 90
4
 70
1
 10
4412.893126
 20
2423.469307
 10
5632.893126
 20
2423.469307
 10
5632.893126
 20
-16.530693
 10
4412.893126
 20
-16.530693
  0
MTEXT
  5
DD
330
17
100
AcDbEntity
  8
REF_TEXT_DO_NOT_CUT
 62
7
100
AcDbMText
 10
1930.2877872571241
 20
2511.0824821764154
 30
0.0
 40
48.0
 41
0.0
 71
1
  1
{\H64;\fArial|b0|i0;12mm}
 90
0
  0
MTEXT
  5
DE
330
17
100
AcDbEntity
  8
REF_TEXT_DO_NOT_CUT
 62
7
100
AcDbMText
 10
3520.721937383525
 20
2511.0824821764154
 30
0.0
 40
48.0
 41
0.0
 71
1
  1
{\H64;\fArial|b0|i0;12mm}
 90
0
  0
MTEXT
  5
DF
330
17
100
AcDbEntity
  8
REF_TEXT_DO_NOT_CUT
 62
7
100
AcDbMText
 10
4956.757191253978
 20
2480.255588721
 30
0.0
 40
1.0
 41
0.0
 71
1
  1
{\fArial|b0|i0;}
 90
0
  0
MTEXT
  5
E0
330
17
100
AcDbEntity
  8
REF_TEXT_DO_NOT_CUT
 62
7
100
AcDbMText
 10
2941.4021797365963
 20
2948.26437661998
 30
0.0
 40
64.0
 41
0.0
 71
1
  1
此面加工\P白色填充部分是下铣6mm\P蓝色填充部分是开孔
 90
0
  0
MTEXT
  5
E1
330
17
100
AcDbEntity
  8
REF_TEXT_DO_NOT_CUT
 62
7
100
AcDbMText
 10
4956.757191253978
 20
2511.0824821764154
 30
0.0
 40
48.0
 41
0.0
 71
1
  1
{\H64;\fArial|b0|i0;5mm}
 90
0
  0
MTEXT
  5
E2
330
17
100
AcDbEntity
  8
REF_TEXT_DO_NOT_CUT
100
AcDbMText
 10
1500.0
 20
-240.0
 30
0.0
 40
22.0
 41
1500.0
 71
1
  1
修订2补P53：12mm / 5mm板\P配合槽宽5mm，门轨宽6mm，中筋8mm。\P白填充深6mm，蓝填充通孔。\P5mm槽须用≤5mm刀；R3避空保留。\PREF_*及VIS_*不加工。
  0
TEXT
  5
E3
330
17
100
AcDbEntity
  8
REF_TEXT_DO_NOT_CUT
100
AcDbText
 10
1649.893126
 20
1869.4693069999998
 30
0.0
 40
14.0
  1
P01
100
AcDbText
  0
TEXT
  5
E4
330
17
100
AcDbEntity
  8
REF_TEXT_DO_NOT_CUT
100
AcDbText
 10
1738.947341
 20
574.469307
 30
0.0
 40
14.0
  1
P02
100
AcDbText
  0
TEXT
  5
E5
330
17
100
AcDbEntity
  8
REF_TEXT_DO_NOT_CUT
100
AcDbText
 10
1738.947341
 20
1070.469307
 30
0.0
 40
14.0
  1
P03
100
AcDbText
  0
TEXT
  5
E6
330
17
100
AcDbEntity
  8
REF_TEXT_DO_NOT_CUT
100
AcDbText
 10
1747.209658
 20
162.305637
 30
0.0
 40
14.0
  1
P04
100
AcDbText
  0
TEXT
  5
E7
330
17
100
AcDbEntity
  8
REF_TEXT_DO_NOT_CUT
100
AcDbText
 10
1736.893126
 20
1842.4693069999998
 30
0.0
 40
14.0
  1
P05
100
AcDbText
  0
TEXT
  5
E8
330
17
100
AcDbEntity
  8
REF_TEXT_DO_NOT_CUT
100
AcDbText
 10
1762.385918
 20
1399.469307
 30
0.0
 40
14.0
  1
P06
100
AcDbText
  0
TEXT
  5
E9
330
17
100
AcDbEntity
  8
REF_TEXT_DO_NOT_CUT
100
AcDbText
 10
1822.385918
 20
1869.4693069999998
 30
0.0
 40
14.0
  1
P07
100
AcDbText
  0
TEXT
  5
EA
330
17
100
AcDbEntity
  8
REF_TEXT_DO_NOT_CUT
100
AcDbText
 10
1974.385918
 20
1817.4693069999998
 30
0.0
 40
14.0
  1
P08
100
AcDbText
  0
TEXT
  5
EB
330
17
100
AcDbEntity
  8
REF_TEXT_DO_NOT_CUT
100
AcDbText
 10
1955.177715
 20
193.00683500000002
 30
0.0
 40
14.0
  1
P09
100
AcDbText
  0
TEXT
  5
EC
330
17
100
AcDbEntity
  8
REF_TEXT_DO_NOT_CUT
100
AcDbText
 10
1955.177715
 20
443.006835
 30
0.0
 40
14.0
  1
P10
100
AcDbText
  0
TEXT
  5
ED
330
17
100
AcDbEntity
  8
REF_TEXT_DO_NOT_CUT
100
AcDbText
 10
2024.893126
 20
749.321576
 30
0.0
 40
14.0
  1
P11
100
AcDbText
  0
TEXT
  5
EE
330
17
100
AcDbEntity
  8
REF_TEXT_DO_NOT_CUT
100
AcDbText
 10
2024.893126
 20
1059.321576
 30
0.0
 40
14.0
  1
P12
100
AcDbText
  0
TEXT
  5
EF
330
17
100
AcDbEntity
  8
REF_TEXT_DO_NOT_CUT
100
AcDbText
 10
2021.1777149999998
 20
193.00683500000002
 30
0.0
 40
14.0
  1
P13
100
AcDbText
  0
TEXT
  5
F0
330
17
100
AcDbEntity
  8
REF_TEXT_DO_NOT_CUT
100
AcDbText
 10
2021.1777149999998
 20
443.006835
 30
0.0
 40
14.0
  1
P14
100
AcDbText
  0
TEXT
  5
F1
330
17
100
AcDbEntity
  8
REF_TEXT_DO_NOT_CUT
100
AcDbText
 10
2102.885918
 20
2067.469307
 30
0.0
 40
14.0
  1
P15
100
AcDbText
  0
TEXT
  5
F2
330
17
100
AcDbEntity
  8
REF_TEXT_DO_NOT_CUT
100
AcDbText
 10
2436.893126
 20
661.469307
 30
0.0
 40
14.0
  1
P16
100
AcDbText
  0
TEXT
  5
F3
330
17
100
AcDbEntity
  8
REF_TEXT_DO_NOT_CUT
100
AcDbText
 10
2451.893126
 20
243.46930700000001
 30
0.0
 40
14.0
  1
P17
100
AcDbText
  0
TEXT
  5
F4
330
17
100
AcDbEntity
  8
REF_TEXT_DO_NOT_CUT
100
AcDbText
 10
2204.885918
 20
2067.469307
 30
0.0
 40
14.0
  1
P18
100
AcDbText
  0
TEXT
  5
F5
330
17
100
AcDbEntity
  8
REF_TEXT_DO_NOT_CUT
100
AcDbText
 10
2360.893126
 20
116.46930699999999
 30
0.0
 40
14.0
  1
P19
100
AcDbText
  0
TEXT
  5
F6
330
17
100
AcDbEntity
  8
REF_TEXT_DO_NOT_CUT
100
AcDbText
 10
2306.885918
 20
2067.469307
 30
0.0
 40
14.0
  1
P20
100
AcDbText
  0
TEXT
  5
F7
330
17
100
AcDbEntity
  8
REF_TEXT_DO_NOT_CUT
100
AcDbText
 10
2408.885918
 20
2067.469307
 30
0.0
 40
14.0
  1
P21
100
AcDbText
  0
TEXT
  5
F8
330
17
100
AcDbEntity
  8
REF_TEXT_DO_NOT_CUT
100
AcDbText
 10
2510.885918
 20
2020.4693069999998
 30
0.0
 40
14.0
  1
P22
100
AcDbText
  0
TEXT
  5
F9
330
17
100
AcDbEntity
  8
REF_TEXT_DO_NOT_CUT
100
AcDbText
 10
2646.893126
 20
116.46930699999999
 30
0.0
 40
14.0
  1
P23
100
AcDbText
  0
TEXT
  5
FA
330
17
100
AcDbEntity
  8
REF_TEXT_DO_NOT_CUT
100
AcDbText
 10
2640.385918
 20
2067.469307
 30
0.0
 40
14.0
  1
P24
100
AcDbText
  0
TEXT
  5
FB
330
17
100
AcDbEntity
  8
REF_TEXT_DO_NOT_CUT
100
AcDbText
 10
3194.893126
 20
508.46930699999996
 30
0.0
 40
14.0
  1
P25
100
AcDbText
  0
TEXT
  5
FC
330
17
100
AcDbEntity
  8
REF_TEXT_DO_NOT_CUT
100
AcDbText
 10
3194.893126
 20
1004.4693070000001
 30
0.0
 40
14.0
  1
P26
100
AcDbText
  0
TEXT
  5
FD
330
17
100
AcDbEntity
  8
REF_TEXT_DO_NOT_CUT
100
AcDbText
 10
3658.893126
 20
339.46930699999996
 30
0.0
 40
14.0
  1
P27
100
AcDbText
  0
TEXT
  5
FE
330
17
100
AcDbEntity
  8
REF_TEXT_DO_NOT_CUT
100
AcDbText
 10
3658.893126
 20
1047.469307
 30
0.0
 40
14.0
  1
P28
100
AcDbText
  0
TEXT
  5
FF
330
17
100
AcDbEntity
  8
REF_TEXT_DO_NOT_CUT
100
AcDbText
 10
3234.28886
 20
1543.075522
 30
0.0
 40
14.0
  1
P29
100
AcDbText
  0
TEXT
  5
100
330
17
100
AcDbEntity
  8
REF_TEXT_DO_NOT_CUT
100
AcDbText
 10
3402.893126
 20
1835.469307
 30
0.0
 40
14.0
  1
P30
100
AcDbText
  0
TEXT
  5
101
330
17
100
AcDbEntity
  8
REF_TEXT_DO_NOT_CUT
100
AcDbText
 10
3402.893126
 20
2161.469307
 30
0.0
 40
14.0
  1
P31
100
AcDbText
  0
TEXT
  5
102
330
17
100
AcDbEntity
  8
REF_TEXT_DO_NOT_CUT
100
AcDbText
 10
3402.893126
 20
2354.469307
 30
0.0
 40
14.0
  1
P32
100
AcDbText
  0
TEXT
  5
103
330
17
100
AcDbEntity
  8
REF_TEXT_DO_NOT_CUT
100
AcDbText
 10
3402.893126
 20
2402.469307
 30
0.0
 40
14.0
  1
P33
100
AcDbText
  0
TEXT
  5
104
330
17
100
AcDbEntity
  8
REF_TEXT_DO_NOT_CUT
100
AcDbText
 10
3560.28886
 20
1473.075522
 30
0.0
 40
14.0
  1
P34
100
AcDbText
  0
TEXT
  5
105
330
17
100
AcDbEntity
  8
REF_TEXT_DO_NOT_CUT
100
AcDbText
 10
3839.2888599999997
 20
1579.075522
 30
0.0
 40
14.0
  1
P35
100
AcDbText
  0
TEXT
  5
106
330
17
100
AcDbEntity
  8
REF_TEXT_DO_NOT_CUT
100
AcDbText
 10
3940.893126
 20
1835.469307
 30
0.0
 40
14.0
  1
P36
100
AcDbText
  0
TEXT
  5
107
330
17
100
AcDbEntity
  8
REF_TEXT_DO_NOT_CUT
100
AcDbText
 10
3940.893126
 20
2161.469307
 30
0.0
 40
14.0
  1
P37
100
AcDbText
  0
TEXT
  5
108
330
17
100
AcDbEntity
  8
REF_TEXT_DO_NOT_CUT
100
AcDbText
 10
3940.893126
 20
2354.469307
 30
0.0
 40
14.0
  1
P38
100
AcDbText
  0
TEXT
  5
109
330
17
100
AcDbEntity
  8
REF_TEXT_DO_NOT_CUT
100
AcDbText
 10
3940.893126
 20
2402.469307
 30
0.0
 40
14.0
  1
P39
100
AcDbText
  0
TEXT
  5
10A
330
17
100
AcDbEntity
  8
REF_TEXT_DO_NOT_CUT
100
AcDbText
 10
3966.2888599999997
 20
1473.075522
 30
0.0
 40
14.0
  1
P40
100
AcDbText
  0
TEXT
  5
10B
330
17
100
AcDbEntity
  8
REF_TEXT_DO_NOT_CUT
100
AcDbText
 10
4684.893126
 20
131.469307
 30
0.0
 40
14.0
  1
P41
100
AcDbText
  0
TEXT
  5
10C
330
17
100
AcDbEntity
  8
REF_TEXT_DO_NOT_CUT
100
AcDbText
 10
4592.893126
 20
633.4693070000001
 30
0.0
 40
14.0
  1
P42
100
AcDbText
  0
TEXT
  5
10D
330
17
100
AcDbEntity
  8
REF_TEXT_DO_NOT_CUT
100
AcDbText
 10
4962.393126
 20
2073.469307
 30
0.0
 40
14.0
  1
P43
100
AcDbText
  0
TEXT
  5
10E
330
17
100
AcDbEntity
  8
REF_TEXT_DO_NOT_CUT
100
AcDbText
 10
4943.893126
 20
1379.469307
 30
0.0
 40
14.0
  1
P44
100
AcDbText
  0
TEXT
  5
10F
330
17
100
AcDbEntity
  8
REF_TEXT_DO_NOT_CUT
100
AcDbText
 10
4946.893126
 20
633.4693070000001
 30
0.0
 40
14.0
  1
P45
100
AcDbText
  0
TEXT
  5
110
330
17
100
AcDbEntity
  8
REF_TEXT_DO_NOT_CUT
100
AcDbText
 10
5222.893126
 20
131.469307
 30
0.0
 40
14.0
  1
P46
100
AcDbText
  0
TEXT
  5
111
330
17
100
AcDbEntity
  8
REF_TEXT_DO_NOT_CUT
100
AcDbText
 10
5326.893126
 20
708.4693070000001
 30
0.0
 40
14.0
  1
P47
100
AcDbText
  0
TEXT
  5
112
330
17
100
AcDbEntity
  8
REF_TEXT_DO_NOT_CUT
100
AcDbText
 10
5488.893126
 20
1127.469307
 30
0.0
 40
14.0
  1
P48
100
AcDbText
  0
TEXT
  5
113
330
17
100
AcDbEntity
  8
REF_TEXT_DO_NOT_CUT
100
AcDbText
 10
5546.893126
 20
1467.469307
 30
0.0
 40
14.0
  1
P49
100
AcDbText
  0
TEXT
  5
114
330
17
100
AcDbEntity
  8
REF_TEXT_DO_NOT_CUT
100
AcDbText
 10
5537.893126
 20
2067.469307
 30
0.0
 40
14.0
  1
P50
100
AcDbText
  0
TEXT
  5
115
330
17
100
AcDbEntity
  8
REF_TEXT_DO_NOT_CUT
100
AcDbText
 10
5573.247723
 20
842.3728639999999
 30
0.0
 40
14.0
  1
P51
100
AcDbText
  0
TEXT
  5
116
330
17
100
AcDbEntity
  8
REF_TEXT_DO_NOT_CUT
100
AcDbText
 10
5583.893126
 20
2067.469307
 30
0.0
 40
14.0
  1
P52
100
AcDbText
  0
TEXT
  5
117
330
17
100
AcDbEntity
  8
REF_TEXT_DO_NOT_CUT
100
AcDbText
 10
2436.893126
 20
1317.469307
 30
0.0
 40
14.0
  1
P53
100
AcDbText
  0
MTEXT
  5
11B
330
17
100
AcDbEntity
  8
REF_TEXT_DO_NOT_CUT
100
AcDbMText
 10
4415.0
 20
-250.0
 30
0.0
 40
18.0
 41
1300.0
 71
1
  1
拉门圆形通孔：直径25mm。\PP42圆心距左边37.5mm；P45圆心距右边37.5mm。\P高度居中，局部Y396mm。门板348x792x5mm，外轮廓恢复完整长方形。
  0
CIRCLE
  5
11C
330
17
100
AcDbEntity
  8
HOLE_THROUGH_5MM
 62
150
100
AcDbCircle
 10
4456.393126
 20
633.469307
 30
0.0
 40
12.5
  0
HATCH
  5
11D
330
17
100
AcDbEntity
  8
VIS_FILL_DO_NOT_MACHINE
 62
150
100
AcDbHatch
 10
0.0
 20
0.0
 30
0.0
210
0.0
220
0.0
230
1.0
  2
SOLID
 70
1
 71
0
 91
1
 92
3
 72
1
 73
1
 93
2
 10
4468.893126
 20
633.469307
 42
1.0
 10
4443.893126
 20
633.469307
 42
1.0
 97
0
 75
0
 76
1
 98
0
  0
CIRCLE
  5
11E
330
17
100
AcDbEntity
  8
HOLE_THROUGH_5MM
 62
150
100
AcDbCircle
 10
5083.393126
 20
633.469307
 30
0.0
 40
12.5
  0
HATCH
  5
11F
330
17
100
AcDbEntity
  8
VIS_FILL_DO_NOT_MACHINE
 62
150
100
AcDbHatch
 10
0.0
 20
0.0
 30
0.0
210
0.0
220
0.0
230
1.0
  2
SOLID
 70
1
 71
0
 91
1
 92
3
 72
1
 73
1
 93
2
 10
5095.893126
 20
633.469307
 42
1.0
 10
5070.893126
 20
633.469307
 42
1.0
 97
0
 75
0
 76
1
 98
0
  0
ENDSEC
  0
SECTION
  2
OBJECTS
  0
DICTIONARY
  5
A
330
0
100
AcDbDictionary
281
1
  3
ACAD_COLOR
350
B
  3
ACAD_GROUP
350
C
  3
ACAD_LAYOUT
350
D
  3
ACAD_MATERIAL
350
E
  3
ACAD_MLEADERSTYLE
350
F
  3
ACAD_MLINESTYLE
350
10
  3
ACAD_PLOTSETTINGS
350
11
  3
ACAD_PLOTSTYLENAME
350
12
  3
ACAD_SCALELIST
350
14
  3
ACAD_TABLESTYLE
350
15
  3
ACAD_VISUALSTYLE
350
16
  3
EZDXF_META
350
2D
  0
DICTIONARY
  5
B
330
A
100
AcDbDictionary
281
1
  0
DICTIONARY
  5
C
330
A
100
AcDbDictionary
281
1
  0
DICTIONARY
  5
D
330
A
100
AcDbDictionary
281
1
  3
Model
350
1A
  3
Layout1
350
1E
  0
DICTIONARY
  5
E
330
A
100
AcDbDictionary
281
1
  3
ByBlock
350
1F
  3
ByLayer
350
20
  3
Global
350
21
  0
DICTIONARY
  5
F
330
A
100
AcDbDictionary
281
1
  3
Standard
350
2C
  0
DICTIONARY
  5
10
330
A
100
AcDbDictionary
281
1
  3
Standard
350
22
  0
DICTIONARY
  5
11
330
A
100
AcDbDictionary
281
1
  0
ACDBDICTIONARYWDFLT
  5
12
330
A
100
AcDbDictionary
281
1
  3
Normal
350
13
100
AcDbDictionaryWithDefault
340
13
  0
ACDBPLACEHOLDER
  5
13
330
12
  0
DICTIONARY
  5
14
330
A
100
AcDbDictionary
281
1
  0
DICTIONARY
  5
15
330
A
100
AcDbDictionary
281
1
  0
DICTIONARY
  5
16
330
A
100
AcDbDictionary
281
1
  0
LAYOUT
  5
1A
330
D
100
AcDbPlotSettings
  1

  4
A3
  6

 40
7.5
 41
20.0
 42
7.5
 43
20.0
 44
420.0
 45
297.0
 46
0.0
 47
0.0
 48
0.0
 49
0.0
140
0.0
141
0.0
142
1.0
143
1.0
 70
1024
 72
1
 73
0
 74
5
  7

 75
16
 76
0
 77
2
 78
300
147
1.0
148
0.0
149
0.0
100
AcDbLayout
  1
Model
 70
1
 71
0
 10
0.0
 20
0.0
 11
420.0
 21
297.0
 12
0.0
 22
0.0
 32
0.0
 14
1e+20
 24
1e+20
 34
1e+20
 15
-1e+20
 25
-1e+20
 35
-1e+20
146
0.0
 13
0.0
 23
0.0
 33
0.0
 16
1.0
 26
0.0
 36
0.0
 17
0.0
 27
1.0
 37
0.0
 76
1
330
17
  0
LAYOUT
  5
1E
330
D
100
AcDbPlotSettings
  1

  4
A3
  6

 40
7.5
 41
20.0
 42
7.5
 43
20.0
 44
420.0
 45
297.0
 46
0.0
 47
0.0
 48
0.0
 49
0.0
140
0.0
141
0.0
142
1.0
143
1.0
 70
0
 72
1
 73
0
 74
5
  7

 75
16
 76
0
 77
2
 78
300
147
1.0
148
0.0
149
0.0
100
AcDbLayout
  1
Layout1
 70
1
 71
1
 10
0.0
 20
0.0
 11
420.0
 21
297.0
 12
0.0
 22
0.0
 32
0.0
 14
1e+20
 24
1e+20
 34
1e+20
 15
-1e+20
 25
-1e+20
 35
-1e+20
146
0.0
 13
0.0
 23
0.0
 33
0.0
 16
1.0
 26
0.0
 36
0.0
 17
0.0
 27
1.0
 37
0.0
 76
1
330
1B
  0
MATERIAL
  5
1F
102
{ACAD_REACTORS
330
E
102
}
330
E
100
AcDbMaterial
  1
ByBlock
  2

 70
0
 40
1.0
 71
1
 41
1.0
 91
-1023410177
 42
1.0
 72
1
  3

 73
1
 74
1
 75
1
 44
0.5
 73
0
 45
1.0
 46
1.0
 77
1
  4

 78
1
 79
1
170
1
 48
1.0
171
1
  6

172
1
173
1
174
1
140
1.0
141
1.0
175
1
  7

176
1
177
1
178
1
143
1.0
179
1
  8

270
1
271
1
272
1
145
1.0
146
1.0
273
1
  9

274
1
275
1
276
1
 42
1.0
 72
1
  3

 73
1
 74
1
 75
1
 94
63
  0
MATERIAL
  5
20
102
{ACAD_REACTORS
330
E
102
}
330
E
100
AcDbMaterial
  1
ByLayer
  2

 70
0
 40
1.0
 71
1
 41
1.0
 91
-1023410177
 42
1.0
 72
1
  3

 73
1
 74
1
 75
1
 44
0.5
 73
0
 45
1.0
 46
1.0
 77
1
  4

 78
1
 79
1
170
1
 48
1.0
171
1
  6

172
1
173
1
174
1
140
1.0
141
1.0
175
1
  7

176
1
177
1
178
1
143
1.0
179
1
  8

270
1
271
1
272
1
145
1.0
146
1.0
273
1
  9

274
1
275
1
276
1
 42
1.0
 72
1
  3

 73
1
 74
1
 75
1
 94
63
  0
MATERIAL
  5
21
102
{ACAD_REACTORS
330
E
102
}
330
E
100
AcDbMaterial
  1
Global
  2

 70
0
 40
1.0
 71
1
 41
1.0
 91
-1023410177
 42
1.0
 72
1
  3

 73
1
 74
1
 75
1
 44
0.5
 73
0
 45
1.0
 46
1.0
 77
1
  4

 78
1
 79
1
170
1
 48
1.0
171
1
  6

172
1
173
1
174
1
140
1.0
141
1.0
175
1
  7

176
1
177
1
178
1
143
1.0
179
1
  8

270
1
271
1
272
1
145
1.0
146
1.0
273
1
  9

274
1
275
1
276
1
 42
1.0
 72
1
  3

 73
1
 74
1
 75
1
 94
63
  0
MLINESTYLE
  5
22
102
{ACAD_REACTORS
330
10
102
}
330
10
100
AcDbMlineStyle
  2
Standard
 70
0
  3

 62
256
 51
90.0
 52
90.0
 71
2
 49
0.5
 62
256
  6
BYLAYER
 49
-0.5
 62
256
  6
BYLAYER
  0
MLEADERSTYLE
  5
2C
102
{ACAD_REACTORS
330
F
102
}
330
F
100
AcDbMLeaderStyle
179
2
170
2
171
1
172
0
 90
2
 40
0.0
 41
0.0
173
1
 91
-1056964608
 92
-2
290
1
 42
2.0
291
1
 43
8.0
  3
Standard
 44
4.0
300

342
29
174
1
175
1
176
0
178
1
 93
-1056964608
 45
4.0
292
0
297
0
 46
4.0
 94
-1056964608
 47
1.0
 49
1.0
140
1.0
294
1
141
0.0
177
0
142
1.0
295
0
296
0
143
3.75
271
0
272
9
273
9
  0
DICTIONARY
  5
2D
330
A
100
AcDbDictionary
280
1
281
1
  3
CREATED_BY_EZDXF
350
2E
  3
WRITTEN_BY_EZDXF
350
11A
  0
DICTIONARYVAR
  5
2E
330
2D
100
DictionaryVariables
280
0
  1
1.4.4 @ 2026-10-07T07:00:13.632674+00:00
  0
DICTIONARYVAR
  5
11A
330
2D
100
DictionaryVariables
280
0
  1
1.4.4 @ 2026-10-07T13:27:58.558740+00:00
  0
ENDSEC
  0
EOF
